<svg xmlns="http://www.w3.org/2000/svg" xmlns:xlink="http://www.w3.org/1999/xlink" width="700" zoomAndPan="magnify" viewBox="0 0 525 374.999991" height="500" preserveAspectRatio="xMidYMid meet" version="1.0"><path fill="#26954f" d="M 220.191406 31.269531 C 201.015625 38.695312 119.199219 70.375 99.097656 146.761719 C 76.175781 233.863281 144.730469 336.414062 239.496094 355.308594 C 337.796875 374.910156 448.835938 328.839844 440.113281 257.453125 C 436.136719 224.882812 391.886719 215.03125 393.933594 176.671875 C 395.933594 139.238281 442.972656 120.890625 438.042969 76.347656 C 437.734375 73.550781 436.742188 65.167969 432.542969 56.785156 C 408.707031 9.195312 300.75 0.078125 220.191406 31.269531 " fill-opacity="1" fill-rule="nonzero"/><path fill="#5bf092" d="M 321.585938 50.957031 C 316.855469 45.523438 317.425781 37.277344 322.859375 32.546875 C 328.300781 27.8125 336.542969 28.386719 341.277344 33.820312 C 346.007812 39.257812 345.4375 47.5 339.996094 52.234375 C 334.5625 56.964844 326.320312 56.398438 321.585938 50.957031 Z M 346.738281 63.835938 L 350.5625 60.507812 L 347.933594 55.632812 C 348.683594 54.703125 349.34375 53.726562 349.914062 52.707031 L 355.410156 53.308594 L 357.054688 48.515625 L 352.34375 45.605469 C 352.523438 44.441406 352.605469 43.265625 352.585938 42.089844 L 357.65625 39.859375 L 356.6875 34.882812 L 351.160156 34.71875 C 350.738281 33.632812 350.214844 32.574219 349.601562 31.550781 L 352.875 27.082031 L 349.546875 23.257812 L 344.671875 25.886719 C 343.746094 25.140625 342.769531 24.476562 341.746094 23.90625 L 342.351562 18.410156 L 337.558594 16.765625 L 334.648438 21.476562 C 333.484375 21.300781 332.304688 21.21875 331.128906 21.230469 L 328.898438 16.164062 L 323.921875 17.136719 L 323.761719 22.660156 C 322.671875 23.085938 321.613281 23.609375 320.589844 24.21875 L 316.125 20.945312 L 312.300781 24.273438 L 314.925781 29.144531 C 314.179688 30.078125 313.519531 31.054688 312.949219 32.070312 L 307.453125 31.472656 L 305.804688 36.265625 L 310.515625 39.171875 C 310.339844 40.339844 310.257812 41.515625 310.273438 42.695312 L 305.207031 44.921875 L 306.175781 49.898438 L 311.703125 50.0625 C 312.125 51.148438 312.648438 52.210938 313.261719 53.230469 L 309.984375 57.699219 L 313.3125 61.519531 L 318.1875 58.894531 C 319.117188 59.640625 320.09375 60.304688 321.109375 60.871094 L 320.511719 66.371094 L 325.304688 68.015625 L 328.214844 63.304688 C 329.378906 63.480469 330.554688 63.5625 331.734375 63.546875 L 333.964844 68.617188 L 338.9375 67.644531 L 339.101562 62.117188 C 340.1875 61.695312 341.25 61.175781 342.273438 60.5625 L 346.738281 63.835938 " fill-opacity="1" fill-rule="nonzero"/><path fill="#5bf092" d="M 381.195312 87.824219 C 373.234375 78.679688 374.199219 64.816406 383.339844 56.851562 C 392.484375 48.894531 406.351562 49.855469 414.3125 59 C 422.269531 68.144531 421.3125 82.011719 412.167969 89.96875 C 403.019531 97.929688 389.15625 96.96875 381.195312 87.824219 Z M 423.5 109.484375 L 429.929688 103.886719 L 425.515625 95.691406 C 426.773438 94.125 427.882812 92.480469 428.839844 90.765625 L 438.089844 91.78125 L 440.859375 83.714844 L 432.929688 78.824219 C 433.230469 76.863281 433.367188 74.886719 433.339844 72.90625 L 441.867188 69.152344 L 440.234375 60.785156 L 430.9375 60.511719 C 430.226562 58.679688 429.347656 56.898438 428.320312 55.175781 L 433.824219 47.667969 L 428.230469 41.234375 L 420.03125 45.652344 C 418.46875 44.398438 416.824219 43.28125 415.105469 42.324219 L 416.121094 33.078125 L 408.058594 30.308594 L 403.164062 38.234375 C 401.207031 37.933594 399.226562 37.796875 397.246094 37.824219 L 393.492188 29.296875 L 385.125 30.933594 L 384.851562 40.230469 C 383.023438 40.941406 381.238281 41.816406 379.519531 42.847656 L 372.007812 37.339844 L 365.574219 42.9375 L 369.996094 51.136719 C 368.738281 52.699219 367.621094 54.34375 366.667969 56.054688 L 357.421875 55.046875 L 354.648438 63.109375 L 362.578125 68 C 362.277344 69.960938 362.140625 71.9375 362.164062 73.921875 L 353.640625 77.671875 L 355.273438 86.042969 L 364.570312 86.3125 C 365.28125 88.144531 366.160156 89.925781 367.1875 91.644531 L 361.679688 99.160156 L 367.28125 105.589844 L 375.480469 101.171875 C 377.039062 102.429688 378.683594 103.542969 380.398438 104.496094 L 379.386719 113.746094 L 387.449219 116.515625 L 392.339844 108.585938 C 394.300781 108.890625 396.28125 109.027344 398.261719 109 L 402.015625 117.523438 L 410.382812 115.894531 L 410.65625 106.597656 C 412.484375 105.882812 414.265625 105.007812 415.988281 103.980469 L 423.5 109.484375 " fill-opacity="1" fill-rule="nonzero"/><path fill="#22c55e" d="M 285.339844 13.332031 L 243.71875 24.523438 C 241.5625 25.101562 240.777344 27.75 242.261719 29.414062 L 246.621094 34.277344 C 247.722656 35.511719 247.621094 37.398438 246.390625 38.503906 L 216.429688 66.050781 C 215.199219 67.152344 213.304688 67.054688 212.199219 65.824219 L 186.820312 37.570312 C 185.714844 36.339844 183.824219 36.238281 182.59375 37.34375 L 95.847656 117.441406 C 94.617188 118.546875 94.515625 120.441406 95.621094 121.671875 L 104.898438 132 C 106.003906 133.230469 107.894531 133.332031 109.125 132.226562 L 181.097656 65.414062 C 182.328125 64.308594 184.21875 64.410156 185.324219 65.640625 L 210.695312 93.882812 C 211.800781 95.113281 213.695312 95.214844 214.925781 94.109375 L 259.636719 53.316406 C 260.871094 52.210938 262.765625 52.3125 263.867188 53.546875 L 268.570312 58.796875 C 270.066406 60.46875 272.808594 59.960938 273.601562 57.855469 L 288.921875 17.285156 C 289.785156 15 287.699219 12.699219 285.339844 13.332031 " fill-opacity="1" fill-rule="nonzero"/><path fill="#5bf092" d="M 370.140625 329.003906 L 412.691406 329.003906 C 416.214844 329.003906 419.070312 326.148438 419.070312 322.621094 L 419.070312 92.5625 C 419.070312 88.632812 415.886719 85.449219 411.957031 85.449219 L 304.144531 85.449219 L 370.140625 329.003906 " fill-opacity="1" fill-rule="nonzero"/><path fill="#5bf092" d="M 418.917969 91.097656 C 418.242188 87.871094 415.386719 85.449219 411.957031 85.449219 L 304.144531 85.449219 L 418.917969 91.097656 " fill-opacity="1" fill-rule="nonzero"/><path fill="#5bf092" d="M 419.070312 269.3125 L 419.070312 92.5625 C 419.070312 92.058594 419.019531 91.570312 418.917969 91.097656 L 419.070312 269.3125 " fill-opacity="1" fill-rule="nonzero"/><path fill="#ffffff" d="M 370.144531 329.003906 L 412.691406 329.003906 C 414.757812 329.003906 416.59375 328.023438 417.761719 326.5 L 370.144531 329.003906 " fill-opacity="1" fill-rule="nonzero"/><path fill="#000000" d="M 412.6875 329.636719 L 370.140625 329.636719 C 369.792969 329.636719 369.511719 329.351562 369.511719 329.003906 C 369.511719 328.660156 369.792969 328.378906 370.140625 328.378906 L 412.6875 328.378906 C 414.496094 328.378906 416.160156 327.554688 417.261719 326.117188 C 417.472656 325.84375 417.863281 325.789062 418.140625 326.003906 C 418.414062 326.210938 418.46875 326.605469 418.257812 326.882812 C 416.917969 328.632812 414.886719 329.636719 412.6875 329.636719 " fill-opacity="1" fill-rule="nonzero"/><path fill="#ffffff" d="M 368.761719 339.441406 C 368.304688 341.742188 366.289062 343.402344 363.9375 343.402344 L 115.335938 343.402344 C 112.242188 343.402344 109.917969 340.570312 110.515625 337.535156 L 159.945312 89.34375 C 160.402344 87.042969 162.421875 85.382812 164.765625 85.382812 L 413.371094 85.382812 C 416.464844 85.382812 418.789062 88.210938 418.191406 91.25 L 368.761719 339.441406 " fill-opacity="1" fill-rule="nonzero"/><path fill="#000000" d="M 133.707031 221.726562 C 133.667969 221.726562 133.625 221.722656 133.582031 221.714844 C 133.242188 221.648438 133.023438 221.316406 133.089844 220.976562 L 159.332031 89.21875 C 159.84375 86.632812 162.128906 84.753906 164.765625 84.753906 L 413.371094 84.753906 C 415.035156 84.753906 416.597656 85.492188 417.652344 86.777344 C 418.707031 88.066406 419.128906 89.738281 418.808594 91.371094 L 396.914062 201.308594 C 396.84375 201.648438 396.511719 201.867188 396.171875 201.800781 C 395.832031 201.734375 395.613281 201.40625 395.679688 201.0625 L 417.574219 91.128906 C 417.824219 89.867188 417.5 88.570312 416.679688 87.578125 C 415.863281 86.582031 414.65625 86.011719 413.371094 86.011719 L 164.765625 86.011719 C 162.726562 86.011719 160.957031 87.460938 160.5625 89.464844 L 134.324219 221.222656 C 134.261719 221.519531 134 221.726562 133.707031 221.726562 " fill-opacity="1" fill-rule="nonzero"/><path fill="#000000" d="M 167.140625 344.199219 C 166.796875 344.199219 166.515625 343.921875 166.515625 343.574219 C 166.515625 343.226562 166.792969 342.945312 167.140625 342.945312 L 334.25 342.523438 C 334.597656 342.523438 334.878906 342.804688 334.878906 343.152344 C 334.878906 343.496094 334.597656 343.78125 334.25 343.78125 L 167.144531 344.199219 C 167.144531 344.199219 167.144531 344.199219 167.140625 344.199219 " fill-opacity="1" fill-rule="nonzero"/><path fill="#26954f" d="M 149.300781 243.667969 L 154.503906 216.335938 L 183.324219 216.335938 L 178.121094 243.667969 L 149.300781 243.667969 " fill-opacity="1" fill-rule="nonzero"/><path fill="#26954f" d="M 181.722656 243.667969 L 186.929688 216.335938 L 215.75 216.335938 L 210.542969 243.667969 L 181.722656 243.667969 " fill-opacity="1" fill-rule="nonzero"/><path fill="#26954f" d="M 214.148438 243.667969 L 219.351562 216.335938 L 248.171875 216.335938 L 242.96875 243.667969 L 214.148438 243.667969 " fill-opacity="1" fill-rule="nonzero"/><path fill="#26954f" d="M 246.570312 243.667969 L 251.777344 216.335938 L 280.597656 216.335938 L 275.390625 243.667969 L 246.570312 243.667969 " fill-opacity="1" fill-rule="nonzero"/><path fill="#26954f" d="M 278.996094 243.667969 L 284.199219 216.335938 L 313.019531 216.335938 L 307.816406 243.667969 L 278.996094 243.667969 " fill-opacity="1" fill-rule="nonzero"/><path fill="#5bf092" d="M 311.421875 243.667969 L 316.625 216.332031 L 345.445312 216.332031 L 340.242188 243.667969 L 311.421875 243.667969 " fill-opacity="1" fill-rule="nonzero"/><path fill="#5bf092" d="M 343.84375 243.667969 L 349.046875 216.332031 L 377.867188 216.332031 L 372.664062 243.667969 L 343.84375 243.667969 " fill-opacity="1" fill-rule="nonzero"/><path fill="#26954f" d="M 143.535156 274.214844 L 148.742188 246.886719 L 177.5625 246.886719 L 172.355469 274.214844 L 143.535156 274.214844 " fill-opacity="1" fill-rule="nonzero"/><path fill="#26954f" d="M 175.960938 274.214844 L 181.164062 246.886719 L 209.984375 246.886719 L 204.78125 274.214844 L 175.960938 274.214844 " fill-opacity="1" fill-rule="nonzero"/><path fill="#26954f" d="M 208.382812 274.214844 L 213.585938 246.886719 L 242.410156 246.886719 L 237.203125 274.214844 L 208.382812 274.214844 " fill-opacity="1" fill-rule="nonzero"/><path fill="#26954f" d="M 240.808594 274.214844 L 246.011719 246.886719 L 274.832031 246.886719 L 269.628906 274.214844 L 240.808594 274.214844 " fill-opacity="1" fill-rule="nonzero"/><path fill="#26954f" d="M 273.230469 274.214844 L 278.4375 246.886719 L 307.257812 246.886719 L 302.050781 274.214844 L 273.230469 274.214844 " fill-opacity="1" fill-rule="nonzero"/><path fill="#5bf092" d="M 305.65625 274.214844 L 310.859375 246.886719 L 339.679688 246.886719 L 334.476562 274.214844 L 305.65625 274.214844 " fill-opacity="1" fill-rule="nonzero"/><path fill="#5bf092" d="M 338.078125 274.214844 L 343.28125 246.886719 L 372.101562 246.886719 L 366.898438 274.214844 L 338.078125 274.214844 " fill-opacity="1" fill-rule="nonzero"/><path fill="#26954f" d="M 160.828125 182.566406 L 166.03125 155.234375 L 194.855469 155.234375 L 189.648438 182.566406 L 160.828125 182.566406 " fill-opacity="1" fill-rule="nonzero"/><path fill="#26954f" d="M 193.265625 182.535156 L 198.46875 155.207031 L 227.289062 155.207031 L 222.089844 182.535156 L 193.265625 182.535156 " fill-opacity="1" fill-rule="nonzero"/><path fill="#26954f" d="M 225.675781 182.566406 L 230.882812 155.234375 L 259.703125 155.234375 L 254.496094 182.566406 L 225.675781 182.566406 " fill-opacity="1" fill-rule="nonzero"/><path fill="#26954f" d="M 258.101562 182.566406 L 263.304688 155.234375 L 292.125 155.234375 L 286.921875 182.566406 L 258.101562 182.566406 " fill-opacity="1" fill-rule="nonzero"/><path fill="#26954f" d="M 290.523438 182.566406 L 295.726562 155.234375 L 324.546875 155.234375 L 319.34375 182.566406 L 290.523438 182.566406 " fill-opacity="1" fill-rule="nonzero"/><path fill="#5bf092" d="M 322.945312 182.566406 L 328.148438 155.234375 L 356.972656 155.234375 L 351.765625 182.566406 L 322.945312 182.566406 " fill-opacity="1" fill-rule="nonzero"/><path fill="#5bf092" d="M 355.371094 182.5625 L 360.574219 155.230469 L 389.398438 155.230469 L 384.191406 182.5625 L 355.371094 182.5625 " fill-opacity="1" fill-rule="nonzero"/><path fill="#26954f" d="M 155.066406 213.117188 L 160.269531 185.78125 L 189.089844 185.78125 L 183.886719 213.117188 L 155.066406 213.117188 " fill-opacity="1" fill-rule="nonzero"/><path fill="#26954f" d="M 187.488281 213.117188 L 192.691406 185.78125 L 221.511719 185.78125 L 216.308594 213.117188 L 187.488281 213.117188 " fill-opacity="1" fill-rule="nonzero"/><path fill="#26954f" d="M 219.910156 213.117188 L 225.117188 185.78125 L 253.9375 185.78125 L 248.734375 213.117188 L 219.910156 213.117188 " fill-opacity="1" fill-rule="nonzero"/><path fill="#26954f" d="M 252.335938 213.117188 L 257.539062 185.78125 L 286.359375 185.78125 L 281.15625 213.117188 L 252.335938 213.117188 " fill-opacity="1" fill-rule="nonzero"/><path fill="#26954f" d="M 284.757812 213.117188 L 289.964844 185.78125 L 318.785156 185.78125 L 313.582031 213.117188 L 284.757812 213.117188 " fill-opacity="1" fill-rule="nonzero"/><path fill="#5bf092" d="M 349.222656 213.117188 L 354.425781 185.78125 L 383.25 185.78125 L 378.042969 213.117188 L 349.222656 213.117188 " fill-opacity="1" fill-rule="nonzero"/><path fill="#5bf092" d="M 317.183594 213.117188 L 322.390625 185.78125 L 351.210938 185.78125 L 346.003906 213.117188 L 317.183594 213.117188 " fill-opacity="1" fill-rule="nonzero"/><path fill="#000000" d="M 212.410156 85.527344 C 212.0625 85.527344 211.78125 85.246094 211.78125 84.898438 C 211.78125 80.296875 210.292969 75.953125 207.46875 72.332031 C 207.257812 72.058594 207.304688 71.664062 207.578125 71.449219 C 207.851562 71.238281 208.246094 71.285156 208.460938 71.558594 C 211.457031 75.402344 213.039062 80.015625 213.039062 84.898438 C 213.039062 85.246094 212.757812 85.527344 212.410156 85.527344 " fill-opacity="1" fill-rule="nonzero"/><path fill="#000000" d="M 191.328125 106.609375 C 179.355469 106.609375 169.617188 96.871094 169.617188 84.898438 C 169.617188 72.929688 179.355469 63.1875 191.328125 63.1875 C 195.863281 63.1875 200.207031 64.570312 203.894531 67.191406 C 204.175781 67.394531 204.242188 67.785156 204.042969 68.066406 C 203.839844 68.351562 203.449219 68.414062 203.164062 68.214844 C 199.695312 65.746094 195.601562 64.441406 191.328125 64.441406 C 180.050781 64.441406 170.875 73.621094 170.875 84.898438 C 170.875 96.179688 180.050781 105.351562 191.328125 105.351562 C 191.675781 105.351562 191.957031 105.632812 191.957031 105.980469 C 191.957031 106.328125 191.675781 106.609375 191.328125 106.609375 " fill-opacity="1" fill-rule="nonzero"/><path fill="#000000" d="M 240.65625 85.527344 C 240.308594 85.527344 240.027344 85.246094 240.027344 84.898438 C 240.027344 80.1875 238.46875 75.761719 235.523438 72.09375 C 235.304688 71.824219 235.347656 71.429688 235.621094 71.210938 C 235.890625 70.996094 236.285156 71.039062 236.5 71.308594 C 239.585938 75.140625 241.28125 79.96875 241.28125 84.898438 C 241.28125 85.246094 241.003906 85.527344 240.65625 85.527344 " fill-opacity="1" fill-rule="nonzero"/><path fill="#000000" d="M 219.574219 106.609375 C 207.601562 106.609375 197.863281 96.871094 197.863281 84.898438 C 197.863281 72.929688 207.601562 63.1875 219.574219 63.1875 C 223.855469 63.1875 228 64.433594 231.554688 66.789062 C 231.84375 66.984375 231.921875 67.371094 231.734375 67.664062 C 231.539062 67.949219 231.148438 68.03125 230.863281 67.835938 C 227.511719 65.621094 223.609375 64.441406 219.574219 64.441406 C 208.292969 64.441406 199.117188 73.621094 199.117188 84.898438 C 199.117188 96.179688 208.292969 105.351562 219.574219 105.351562 C 219.917969 105.351562 220.199219 105.632812 220.199219 105.980469 C 220.199219 106.328125 219.917969 106.609375 219.574219 106.609375 " fill-opacity="1" fill-rule="nonzero"/><path fill="#000000" d="M 268.902344 85.527344 C 268.554688 85.527344 268.273438 85.246094 268.273438 84.898438 C 268.273438 80.175781 266.621094 75.5625 263.628906 71.921875 C 263.410156 71.65625 263.449219 71.257812 263.714844 71.039062 C 263.984375 70.816406 264.382812 70.855469 264.601562 71.125 C 267.78125 74.992188 269.527344 79.882812 269.527344 84.898438 C 269.527344 85.246094 269.246094 85.527344 268.902344 85.527344 " fill-opacity="1" fill-rule="nonzero"/><path fill="#000000" d="M 247.816406 106.609375 C 235.847656 106.609375 226.105469 96.871094 226.105469 84.898438 C 226.105469 72.929688 235.847656 63.1875 247.816406 63.1875 C 252.28125 63.1875 256.570312 64.53125 260.21875 67.078125 C 260.503906 67.277344 260.574219 67.664062 260.375 67.949219 C 260.179688 68.234375 259.785156 68.304688 259.5 68.105469 C 256.0625 65.710938 252.023438 64.441406 247.816406 64.441406 C 236.539062 64.441406 227.363281 73.621094 227.363281 84.898438 C 227.363281 96.179688 236.539062 105.351562 247.816406 105.351562 C 248.164062 105.351562 248.445312 105.632812 248.445312 105.980469 C 248.445312 106.328125 248.164062 106.609375 247.816406 106.609375 " fill-opacity="1" fill-rule="nonzero"/><path fill="#000000" d="M 297.144531 85.527344 C 296.796875 85.527344 296.515625 85.246094 296.515625 84.898438 C 296.515625 80.109375 294.824219 75.449219 291.753906 71.785156 C 291.535156 71.515625 291.570312 71.121094 291.835938 70.898438 C 292.105469 70.675781 292.5 70.710938 292.71875 70.976562 C 295.976562 74.871094 297.773438 79.816406 297.773438 84.898438 C 297.773438 85.246094 297.492188 85.527344 297.144531 85.527344 " fill-opacity="1" fill-rule="nonzero"/><path fill="#000000" d="M 276.0625 106.609375 C 264.089844 106.609375 254.351562 96.871094 254.351562 84.898438 C 254.351562 72.929688 264.089844 63.1875 276.0625 63.1875 C 280.410156 63.1875 284.609375 64.46875 288.199219 66.894531 C 288.488281 67.089844 288.5625 67.480469 288.367188 67.765625 C 288.175781 68.054688 287.785156 68.128906 287.496094 67.9375 C 284.113281 65.652344 280.160156 64.441406 276.0625 64.441406 C 264.78125 64.441406 255.609375 73.621094 255.609375 84.898438 C 255.609375 96.179688 264.78125 105.351562 276.0625 105.351562 C 276.40625 105.351562 276.691406 105.632812 276.691406 105.980469 C 276.691406 106.328125 276.40625 106.609375 276.0625 106.609375 " fill-opacity="1" fill-rule="nonzero"/><path fill="#000000" d="M 325.390625 85.523438 C 325.042969 85.523438 324.761719 85.246094 324.761719 84.898438 C 324.761719 80.230469 323.230469 75.835938 320.332031 72.1875 C 320.117188 71.914062 320.164062 71.519531 320.4375 71.304688 C 320.707031 71.089844 321.101562 71.136719 321.316406 71.40625 C 324.390625 75.277344 326.019531 79.945312 326.019531 84.898438 C 326.019531 85.246094 325.738281 85.523438 325.390625 85.523438 " fill-opacity="1" fill-rule="nonzero"/><path fill="#000000" d="M 304.304688 106.609375 C 292.335938 106.609375 282.59375 96.871094 282.59375 84.898438 C 282.59375 72.929688 292.335938 63.1875 304.304688 63.1875 C 308.640625 63.1875 312.824219 64.460938 316.40625 66.867188 C 316.691406 67.0625 316.769531 67.453125 316.578125 67.742188 C 316.382812 68.027344 315.992188 68.105469 315.703125 67.910156 C 312.328125 65.644531 308.390625 64.441406 304.304688 64.441406 C 293.027344 64.441406 283.851562 73.621094 283.851562 84.898438 C 283.851562 96.179688 293.027344 105.351562 304.304688 105.351562 C 304.652344 105.351562 304.933594 105.632812 304.933594 105.980469 C 304.933594 106.328125 304.652344 106.609375 304.304688 106.609375 " fill-opacity="1" fill-rule="nonzero"/><path fill="#000000" d="M 353.632812 85.527344 C 353.285156 85.527344 353.003906 85.246094 353.003906 84.898438 C 353.003906 80.253906 351.488281 75.878906 348.621094 72.242188 C 348.40625 71.96875 348.453125 71.574219 348.722656 71.359375 C 348.996094 71.144531 349.394531 71.191406 349.609375 71.464844 C 352.652344 75.328125 354.261719 79.972656 354.261719 84.898438 C 354.261719 85.246094 353.980469 85.527344 353.632812 85.527344 " fill-opacity="1" fill-rule="nonzero"/><path fill="#000000" d="M 332.550781 106.609375 C 320.578125 106.609375 310.839844 96.871094 310.839844 84.898438 C 310.839844 72.929688 320.578125 63.1875 332.550781 63.1875 C 336.785156 63.1875 340.886719 64.410156 344.414062 66.714844 C 344.703125 66.902344 344.785156 67.292969 344.59375 67.582031 C 344.40625 67.875 344.015625 67.953125 343.726562 67.765625 C 340.402344 65.59375 336.539062 64.441406 332.550781 64.441406 C 321.273438 64.441406 312.097656 73.621094 312.097656 84.898438 C 312.097656 96.179688 321.273438 105.351562 332.550781 105.351562 C 332.898438 105.351562 333.179688 105.632812 333.179688 105.980469 C 333.179688 106.328125 332.898438 106.609375 332.550781 106.609375 " fill-opacity="1" fill-rule="nonzero"/><path fill="#000000" d="M 381.878906 85.527344 C 381.53125 85.527344 381.25 85.246094 381.25 84.898438 C 381.25 80.203125 379.617188 75.613281 376.65625 71.980469 C 376.433594 71.710938 376.476562 71.316406 376.746094 71.09375 C 377.011719 70.875 377.40625 70.917969 377.628906 71.1875 C 380.773438 75.042969 382.507812 79.914062 382.507812 84.898438 C 382.507812 85.246094 382.222656 85.527344 381.878906 85.527344 " fill-opacity="1" fill-rule="nonzero"/><path fill="#000000" d="M 360.796875 106.609375 C 348.824219 106.609375 339.085938 96.871094 339.085938 84.898438 C 339.085938 72.929688 348.824219 63.1875 360.796875 63.1875 C 365.007812 63.1875 369.097656 64.398438 372.613281 66.6875 C 372.90625 66.875 372.988281 67.265625 372.800781 67.554688 C 372.609375 67.847656 372.222656 67.929688 371.929688 67.738281 C 368.617188 65.582031 364.765625 64.441406 360.796875 64.441406 C 349.515625 64.441406 340.339844 73.621094 340.339844 84.898438 C 340.339844 96.179688 349.515625 105.351562 360.796875 105.351562 C 361.144531 105.351562 361.421875 105.632812 361.421875 105.980469 C 361.421875 106.328125 361.144531 106.609375 360.796875 106.609375 " fill-opacity="1" fill-rule="nonzero"/><path fill="#000000" d="M 389.035156 106.609375 C 377.066406 106.609375 367.328125 96.871094 367.328125 84.898438 C 367.328125 72.929688 377.066406 63.1875 389.035156 63.1875 C 401.007812 63.1875 410.75 72.929688 410.75 84.898438 C 410.75 85.246094 410.46875 85.527344 410.121094 85.527344 C 409.773438 85.527344 409.492188 85.246094 409.492188 84.898438 C 409.492188 73.621094 400.316406 64.445312 389.035156 64.445312 C 377.757812 64.445312 368.585938 73.621094 368.585938 84.898438 C 368.585938 96.179688 377.757812 105.355469 389.035156 105.355469 C 389.382812 105.355469 389.664062 105.636719 389.664062 105.984375 C 389.664062 106.332031 389.382812 106.609375 389.035156 106.609375 " fill-opacity="1" fill-rule="nonzero"/><path fill="#000000" d="M 191.734375 110.460938 C 190.46875 110.460938 189.246094 109.925781 188.390625 108.992188 C 188.15625 108.734375 188.171875 108.335938 188.425781 108.105469 C 188.683594 107.867188 189.082031 107.886719 189.316406 108.140625 C 189.9375 108.816406 190.816406 109.207031 191.734375 109.207031 C 193.546875 109.207031 195.019531 107.730469 195.019531 105.921875 C 195.019531 104.109375 193.546875 102.640625 191.734375 102.640625 C 190.691406 102.640625 189.699219 103.140625 189.082031 103.984375 C 188.878906 104.265625 188.484375 104.328125 188.203125 104.121094 C 187.925781 103.917969 187.863281 103.523438 188.066406 103.246094 C 188.921875 102.078125 190.292969 101.382812 191.734375 101.382812 C 194.238281 101.382812 196.273438 103.417969 196.273438 105.921875 C 196.273438 108.425781 194.238281 110.460938 191.734375 110.460938 " fill-opacity="1" fill-rule="nonzero"/><path fill="#000000" d="M 219.492188 110.460938 C 218.222656 110.460938 217.003906 109.925781 216.144531 108.992188 C 215.910156 108.734375 215.929688 108.335938 216.183594 108.105469 C 216.441406 107.867188 216.835938 107.886719 217.070312 108.140625 C 217.691406 108.816406 218.574219 109.207031 219.492188 109.207031 C 221.300781 109.207031 222.777344 107.730469 222.777344 105.921875 C 222.777344 104.109375 221.300781 102.640625 219.492188 102.640625 C 218.449219 102.640625 217.457031 103.140625 216.839844 103.984375 C 216.632812 104.265625 216.242188 104.328125 215.960938 104.121094 C 215.679688 103.917969 215.621094 103.523438 215.824219 103.246094 C 216.675781 102.078125 218.046875 101.382812 219.492188 101.382812 C 221.992188 101.382812 224.03125 103.417969 224.03125 105.921875 C 224.03125 108.425781 221.992188 110.460938 219.492188 110.460938 " fill-opacity="1" fill-rule="nonzero"/><path fill="#000000" d="M 247.246094 110.460938 C 245.980469 110.460938 244.761719 109.925781 243.902344 108.992188 C 243.667969 108.734375 243.6875 108.335938 243.941406 108.105469 C 244.195312 107.867188 244.597656 107.886719 244.828125 108.140625 C 245.449219 108.816406 246.332031 109.207031 247.246094 109.207031 C 249.058594 109.207031 250.53125 107.730469 250.53125 105.921875 C 250.53125 104.109375 249.058594 102.640625 247.246094 102.640625 C 246.203125 102.640625 245.214844 103.140625 244.597656 103.984375 C 244.390625 104.265625 243.996094 104.328125 243.71875 104.121094 C 243.4375 103.917969 243.375 103.523438 243.582031 103.246094 C 244.433594 102.078125 245.804688 101.382812 247.246094 101.382812 C 249.75 101.382812 251.785156 103.417969 251.785156 105.921875 C 251.785156 108.425781 249.75 110.460938 247.246094 110.460938 " fill-opacity="1" fill-rule="nonzero"/><path fill="#000000" d="M 275.800781 110.460938 C 274.53125 110.460938 273.316406 109.925781 272.457031 108.992188 C 272.222656 108.734375 272.238281 108.335938 272.492188 108.105469 C 272.75 107.867188 273.148438 107.886719 273.382812 108.140625 C 274.003906 108.816406 274.882812 109.207031 275.800781 109.207031 C 277.609375 109.207031 279.085938 107.730469 279.085938 105.921875 C 279.085938 104.109375 277.609375 102.640625 275.800781 102.640625 C 274.757812 102.640625 273.765625 103.140625 273.148438 103.984375 C 272.941406 104.265625 272.550781 104.328125 272.273438 104.121094 C 271.992188 103.917969 271.929688 103.523438 272.136719 103.246094 C 272.988281 102.078125 274.359375 101.382812 275.800781 101.382812 C 278.304688 101.382812 280.339844 103.417969 280.339844 105.921875 C 280.339844 108.425781 278.304688 110.460938 275.800781 110.460938 " fill-opacity="1" fill-rule="nonzero"/><path fill="#000000" d="M 303.851562 110.460938 C 302.582031 110.460938 301.363281 109.925781 300.507812 108.992188 C 300.269531 108.734375 300.289062 108.335938 300.542969 108.105469 C 300.796875 107.867188 301.195312 107.886719 301.433594 108.140625 C 302.050781 108.816406 302.933594 109.207031 303.851562 109.207031 C 305.660156 109.207031 307.132812 107.730469 307.132812 105.921875 C 307.132812 104.109375 305.660156 102.640625 303.851562 102.640625 C 302.804688 102.640625 301.816406 103.140625 301.199219 103.984375 C 300.992188 104.265625 300.601562 104.328125 300.320312 104.121094 C 300.039062 103.917969 299.980469 103.523438 300.183594 103.246094 C 301.035156 102.078125 302.40625 101.382812 303.851562 101.382812 C 306.351562 101.382812 308.390625 103.417969 308.390625 105.921875 C 308.390625 108.425781 306.351562 110.460938 303.851562 110.460938 " fill-opacity="1" fill-rule="nonzero"/><path fill="#000000" d="M 333.242188 110.460938 C 331.972656 110.460938 330.757812 109.925781 329.898438 108.992188 C 329.664062 108.734375 329.679688 108.335938 329.933594 108.105469 C 330.191406 107.867188 330.585938 107.886719 330.820312 108.140625 C 331.441406 108.816406 332.324219 109.207031 333.242188 109.207031 C 335.050781 109.207031 336.527344 107.730469 336.527344 105.921875 C 336.527344 104.109375 335.050781 102.640625 333.242188 102.640625 C 332.199219 102.640625 331.207031 103.140625 330.585938 103.984375 C 330.382812 104.265625 329.988281 104.328125 329.710938 104.121094 C 329.429688 103.917969 329.371094 103.523438 329.574219 103.246094 C 330.425781 102.078125 331.800781 101.382812 333.242188 101.382812 C 335.746094 101.382812 337.78125 103.417969 337.78125 105.921875 C 337.78125 108.425781 335.746094 110.460938 333.242188 110.460938 " fill-opacity="1" fill-rule="nonzero"/><path fill="#000000" d="M 360.996094 110.464844 C 359.730469 110.464844 358.507812 109.925781 357.652344 108.992188 C 357.417969 108.738281 357.433594 108.339844 357.691406 108.105469 C 357.945312 107.871094 358.34375 107.886719 358.578125 108.144531 C 359.199219 108.820312 360.078125 109.207031 360.996094 109.207031 C 362.808594 109.207031 364.28125 107.734375 364.28125 105.925781 C 364.28125 104.113281 362.808594 102.640625 360.996094 102.640625 C 359.953125 102.640625 358.960938 103.144531 358.34375 103.988281 C 358.140625 104.269531 357.746094 104.328125 357.464844 104.125 C 357.1875 103.917969 357.125 103.527344 357.332031 103.246094 C 358.183594 102.078125 359.554688 101.382812 360.996094 101.382812 C 363.5 101.382812 365.539062 103.421875 365.539062 105.925781 C 365.539062 108.425781 363.5 110.464844 360.996094 110.464844 " fill-opacity="1" fill-rule="nonzero"/><path fill="#000000" d="M 388.753906 110.460938 C 387.484375 110.460938 386.265625 109.925781 385.410156 108.992188 C 385.171875 108.738281 385.191406 108.339844 385.445312 108.101562 C 385.703125 107.871094 386.101562 107.886719 386.332031 108.144531 C 386.953125 108.820312 387.835938 109.207031 388.753906 109.207031 C 390.5625 109.207031 392.039062 107.734375 392.039062 105.921875 C 392.039062 104.113281 390.5625 102.640625 388.753906 102.640625 C 387.710938 102.640625 386.71875 103.144531 386.101562 103.988281 C 385.894531 104.265625 385.503906 104.328125 385.222656 104.125 C 384.945312 103.917969 384.882812 103.527344 385.089844 103.246094 C 385.941406 102.078125 387.3125 101.382812 388.753906 101.382812 C 391.257812 101.382812 393.292969 103.417969 393.292969 105.921875 C 393.292969 108.425781 391.257812 110.460938 388.753906 110.460938 " fill-opacity="1" fill-rule="nonzero"/><path fill="#22c55e" d="M 273.753906 178 C 273.554688 178 273.351562 177.984375 273.148438 177.945312 C 272.003906 177.726562 271.058594 176.917969 270.667969 175.816406 L 267.484375 167.503906 C 267.027344 166.316406 267.621094 164.980469 268.808594 164.527344 C 269.996094 164.070312 271.328125 164.664062 271.785156 165.851562 L 274.042969 171.742188 L 281.3125 160.136719 C 281.988281 159.058594 283.410156 158.730469 284.484375 159.40625 C 285.566406 160.082031 285.890625 161.503906 285.214844 162.582031 L 276.375 176.691406 L 276.28125 176.808594 C 275.65625 177.570312 274.722656 178 273.753906 178 " fill-opacity="1" fill-rule="nonzero"/><path fill="#26954f" d="M 349.140625 221.082031 C 350.585938 253.523438 368.175781 268.183594 385.765625 279.074219 L 384.929688 283.679688 C 367.011719 293.605469 348.910156 315.929688 349.328125 345.386719 L 436.183594 344.285156 C 435.605469 321.792969 415.222656 293.425781 400.425781 284.097656 L 400.003906 279.074219 C 423.457031 265.253906 433.511719 246.40625 436.042969 221.160156 L 349.140625 221.082031 " fill-opacity="1" fill-rule="nonzero"/><path fill="#000000" d="M 349.796875 221.707031 C 351.410156 252.886719 368.1875 267.453125 386.097656 278.539062 C 386.3125 278.675781 386.429688 278.933594 386.382812 279.1875 L 385.546875 283.792969 C 385.511719 283.976562 385.394531 284.140625 385.230469 284.230469 C 368.800781 293.332031 349.789062 314.613281 349.949219 344.75 L 435.53125 343.667969 C 435.109375 333.65625 430.710938 321.589844 423.105469 309.59375 C 416.296875 298.851562 407.476562 289.285156 400.089844 284.628906 C 399.921875 284.527344 399.816406 284.347656 399.796875 284.152344 L 399.375 279.125 C 399.359375 278.886719 399.480469 278.652344 399.6875 278.53125 C 421.527344 265.664062 432.546875 248.144531 435.34375 221.785156 Z M 349.328125 346.015625 C 348.984375 346.015625 348.703125 345.738281 348.699219 345.394531 C 348.261719 314.527344 367.574219 292.691406 384.363281 283.277344 L 385.070312 279.382812 C 366.878906 268.0625 349.9375 253.109375 348.511719 221.109375 C 348.503906 220.9375 348.566406 220.769531 348.6875 220.648438 C 348.804688 220.523438 348.96875 220.453125 349.140625 220.453125 L 436.039062 220.53125 C 436.21875 220.53125 436.386719 220.605469 436.507812 220.738281 C 436.625 220.871094 436.683594 221.046875 436.667969 221.222656 C 433.957031 248.261719 422.847656 266.226562 400.664062 279.414062 L 401.023438 283.738281 C 408.609375 288.609375 417.238281 297.992188 424.167969 308.921875 C 432.054688 321.363281 436.542969 333.914062 436.808594 344.269531 C 436.8125 344.4375 436.75 344.601562 436.632812 344.722656 C 436.519531 344.84375 436.355469 344.914062 436.1875 344.914062 L 349.335938 346.015625 C 349.335938 346.015625 349.328125 346.015625 349.328125 346.015625 " fill-opacity="1" fill-rule="nonzero"/><path fill="#22c55e" d="M 439.21875 221.160156 L 346.132812 221.160156 C 344.890625 221.160156 343.882812 220.152344 343.882812 218.910156 L 343.882812 208.960938 C 343.882812 207.71875 344.890625 206.710938 346.132812 206.710938 L 439.21875 206.710938 C 440.460938 206.710938 441.46875 207.71875 441.46875 208.960938 L 441.46875 218.910156 C 441.46875 220.152344 440.460938 221.160156 439.21875 221.160156 " fill-opacity="1" fill-rule="nonzero"/><path fill="#000000" d="M 351.105469 207.339844 C 347.46875 207.339844 344.511719 210.300781 344.511719 213.9375 C 344.511719 217.574219 347.46875 220.53125 351.105469 220.53125 L 434.242188 220.53125 C 437.882812 220.53125 440.839844 217.574219 440.839844 213.9375 C 440.839844 210.300781 437.882812 207.339844 434.242188 207.339844 Z M 434.242188 221.789062 L 351.105469 221.789062 C 346.777344 221.789062 343.253906 218.265625 343.253906 213.9375 C 343.253906 209.605469 346.777344 206.082031 351.105469 206.082031 L 434.242188 206.082031 C 438.570312 206.082031 442.097656 209.605469 442.097656 213.9375 C 442.097656 218.265625 438.570312 221.789062 434.242188 221.789062 " fill-opacity="1" fill-rule="nonzero"/><path fill="#5bf092" d="M 360.636719 249.757812 L 422.203125 249.757812 C 418.851562 261.0625 412.148438 269.023438 395.398438 277.816406 L 394.980469 329.332031 L 431.414062 329.75 C 432.46875 334.957031 434.332031 340.554688 433.929688 345.664062 L 351 344.828125 C 351.179688 339.75 351.625 334.671875 353.511719 329.332031 L 390.789062 329.332031 L 389.953125 276.5625 C 375.929688 273.386719 364.6875 258.578125 360.636719 249.757812 " fill-opacity="1" fill-rule="nonzero"/><path fill="#22c55e" d="M 438.09375 358.734375 L 346.835938 358.734375 C 345.667969 358.734375 344.722656 357.789062 344.722656 356.621094 L 344.722656 346.398438 C 344.722656 345.234375 345.667969 344.285156 346.835938 344.285156 L 438.09375 344.285156 C 439.261719 344.285156 440.210938 345.234375 440.210938 346.398438 L 440.210938 356.621094 C 440.210938 357.789062 439.261719 358.734375 438.09375 358.734375 " fill-opacity="1" fill-rule="nonzero"/><path fill="#000000" d="M 349.390625 344.914062 C 347.160156 344.914062 345.347656 346.726562 345.347656 348.953125 L 345.347656 354.066406 C 345.347656 356.292969 347.160156 358.105469 349.390625 358.105469 L 435.542969 358.105469 C 437.769531 358.105469 439.582031 356.292969 439.582031 354.066406 L 439.582031 348.953125 C 439.582031 346.726562 437.769531 344.914062 435.542969 344.914062 Z M 435.542969 359.363281 L 349.390625 359.363281 C 346.46875 359.363281 344.09375 356.988281 344.09375 354.066406 L 344.09375 348.953125 C 344.09375 346.035156 346.46875 343.660156 349.390625 343.660156 L 435.542969 343.660156 C 438.464844 343.660156 440.839844 346.035156 440.839844 348.953125 L 440.839844 354.066406 C 440.839844 356.988281 438.464844 359.363281 435.542969 359.363281 " fill-opacity="1" fill-rule="nonzero"/><path fill="#ffffff" d="M 169.015625 332.4375 L 169.589844 343.785156 L 164.121094 343.726562 L 162.492188 332.769531 L 169.015625 332.4375 " fill-opacity="1" fill-rule="nonzero"/><path fill="#000000" d="M 164.664062 343.105469 L 168.925781 343.148438 L 168.421875 333.097656 L 163.214844 333.363281 Z M 169.589844 344.410156 C 169.585938 344.410156 169.582031 344.410156 169.582031 344.410156 L 164.113281 344.355469 C 163.804688 344.351562 163.542969 344.125 163.5 343.816406 L 161.871094 332.859375 C 161.84375 332.6875 161.894531 332.507812 162.007812 332.371094 C 162.117188 332.234375 162.285156 332.148438 162.460938 332.140625 L 168.984375 331.8125 C 169.152344 331.804688 169.3125 331.859375 169.4375 331.972656 C 169.5625 332.085938 169.636719 332.242188 169.644531 332.40625 L 170.214844 343.75 C 170.222656 343.925781 170.160156 344.09375 170.039062 344.21875 C 169.921875 344.339844 169.757812 344.410156 169.589844 344.410156 " fill-opacity="1" fill-rule="nonzero"/><path fill="#ffffff" d="M 164.03125 358.246094 C 166.265625 358.371094 172.394531 358.246094 174.101562 357.398438 C 175.601562 356.652344 176.796875 353.4375 175.960938 352.300781 C 173.871094 349.453125 172.296875 344.417969 170.953125 340.488281 C 170.875 340.265625 170.574219 340.234375 170.453125 340.4375 L 169.378906 342.253906 L 168.425781 340.234375 C 168.277344 340.011719 168.027344 339.871094 167.761719 339.863281 L 165.847656 339.921875 C 165.410156 339.902344 164.957031 340.351562 164.71875 340.761719 L 163.425781 342.554688 L 162.589844 341.1875 C 162.449219 340.957031 162.097656 341.042969 162.078125 341.3125 L 161.144531 354.621094 C 161.203125 356.746094 162.734375 358.171875 164.03125 358.246094 " fill-opacity="1" fill-rule="nonzero"/><path fill="#000000" d="M 164.066406 357.617188 C 166.589844 357.761719 172.351562 357.566406 173.820312 356.835938 C 174.492188 356.5 175.210938 355.367188 175.496094 354.199219 C 175.691406 353.378906 175.597656 352.867188 175.453125 352.671875 C 173.519531 350.039062 172.058594 345.722656 170.773438 341.917969 C 170.71875 341.75 170.660156 341.582031 170.605469 341.417969 L 169.917969 342.574219 C 169.800781 342.777344 169.582031 342.894531 169.347656 342.882812 C 169.117188 342.871094 168.910156 342.734375 168.808594 342.523438 L 167.882812 340.558594 C 167.847656 340.519531 167.800781 340.496094 167.75 340.488281 L 165.867188 340.550781 C 165.851562 340.550781 165.835938 340.550781 165.820312 340.550781 C 165.75 340.550781 165.460938 340.734375 165.261719 341.082031 C 165.25 341.097656 165.238281 341.113281 165.226562 341.132812 L 163.9375 342.921875 C 163.8125 343.09375 163.621094 343.1875 163.402344 343.183594 C 163.191406 343.175781 163 343.0625 162.890625 342.882812 L 162.628906 342.457031 L 161.773438 354.632812 C 161.839844 356.476562 163.167969 357.566406 164.066406 357.617188 Z M 165.925781 358.914062 C 165.144531 358.914062 164.472656 358.898438 163.996094 358.871094 C 162.371094 358.78125 160.585938 357.058594 160.515625 354.636719 C 160.515625 354.617188 160.515625 354.597656 160.515625 354.574219 L 161.453125 341.269531 C 161.480469 340.875 161.757812 340.546875 162.140625 340.453125 C 162.523438 340.359375 162.921875 340.523438 163.125 340.859375 L 163.46875 341.421875 L 164.191406 340.421875 C 164.527344 339.855469 165.117188 339.261719 165.847656 339.292969 L 167.742188 339.234375 C 167.757812 339.230469 167.773438 339.234375 167.789062 339.234375 C 168.253906 339.253906 168.6875 339.496094 168.945312 339.886719 C 168.964844 339.910156 168.980469 339.9375 168.992188 339.964844 L 169.441406 340.917969 L 169.914062 340.117188 C 170.097656 339.8125 170.429688 339.644531 170.785156 339.679688 C 171.140625 339.714844 171.433594 339.949219 171.546875 340.285156 C 171.683594 340.683594 171.824219 341.097656 171.964844 341.515625 C 173.222656 345.238281 174.644531 349.449219 176.464844 351.925781 C 176.886719 352.503906 176.976562 353.414062 176.714844 354.496094 C 176.398438 355.796875 175.554688 357.375 174.378906 357.960938 C 172.894531 358.699219 168.722656 358.914062 165.925781 358.914062 " fill-opacity="1" fill-rule="nonzero"/><path fill="#000000" d="M 167.484375 356.34375 C 165.0625 356.34375 163.429688 355.90625 163.316406 355.875 C 162.984375 355.78125 162.789062 355.4375 162.878906 355.101562 C 162.972656 354.765625 163.316406 354.570312 163.652344 354.664062 C 163.695312 354.675781 168.015625 355.828125 172.984375 354.246094 C 173.316406 354.144531 173.667969 354.324219 173.773438 354.65625 C 173.878906 354.988281 173.695312 355.339844 173.367188 355.445312 C 171.191406 356.136719 169.152344 356.34375 167.484375 356.34375 " fill-opacity="1" fill-rule="nonzero"/><path fill="#000000" d="M 165.78125 350.5 C 165.449219 350.5 165.171875 350.238281 165.15625 349.902344 C 165.136719 349.554688 165.40625 349.261719 165.75 349.242188 L 170.726562 348.992188 C 171.066406 348.972656 171.367188 349.242188 171.386719 349.589844 C 171.402344 349.933594 171.136719 350.230469 170.789062 350.246094 L 165.816406 350.5 C 165.804688 350.5 165.792969 350.5 165.78125 350.5 " fill-opacity="1" fill-rule="nonzero"/><path fill="#ffffff" d="M 128.613281 328.457031 L 127.691406 342.21875 L 122.574219 342.296875 L 121.894531 328.796875 L 128.613281 328.457031 " fill-opacity="1" fill-rule="nonzero"/><path fill="#000000" d="M 122.550781 329.394531 L 123.171875 341.660156 L 127.105469 341.597656 L 127.941406 329.121094 Z M 122.574219 342.925781 C 122.238281 342.925781 121.964844 342.664062 121.945312 342.328125 L 121.265625 328.832031 C 121.25 328.484375 121.515625 328.1875 121.863281 328.171875 L 128.582031 327.832031 C 128.761719 327.820312 128.9375 327.890625 129.0625 328.019531 C 129.1875 328.148438 129.253906 328.320312 129.242188 328.5 L 128.320312 342.261719 C 128.296875 342.585938 128.03125 342.839844 127.703125 342.847656 L 122.582031 342.925781 C 122.582031 342.925781 122.578125 342.925781 122.574219 342.925781 " fill-opacity="1" fill-rule="nonzero"/><path fill="#ffffff" d="M 129.199219 338.878906 C 129.199219 338.878906 129.707031 344.933594 129.628906 347.386719 C 129.570312 349.144531 127.441406 354.546875 126.234375 357.476562 C 125.738281 358.679688 124.628906 359.648438 123.496094 359.96875 C 121.359375 360.570312 120.3125 360.597656 118.308594 360.371094 C 115.609375 360.070312 114.65625 357.664062 115.328125 355.273438 C 115.945312 353.074219 117.035156 350.628906 118.890625 347.597656 C 120.238281 345.402344 121.246094 339.042969 121.246094 339.042969 L 125.410156 338.832031 L 126.761719 342.265625 L 129.199219 338.878906 " fill-opacity="1" fill-rule="nonzero"/><path fill="#000000" d="M 121.78125 339.644531 C 121.507812 341.21875 120.609375 345.996094 119.429688 347.925781 C 117.683594 350.777344 116.570312 353.167969 115.929688 355.445312 C 115.597656 356.625 115.71875 357.761719 116.261719 358.566406 C 116.710938 359.234375 117.445312 359.644531 118.378906 359.746094 C 120.304688 359.960938 121.289062 359.9375 123.324219 359.363281 C 124.308594 359.085938 125.242188 358.230469 125.652344 357.234375 C 127.742188 352.167969 128.960938 348.570312 129 347.367188 C 129.050781 345.78125 128.847656 342.613281 128.707031 340.640625 L 127.269531 342.628906 C 127.136719 342.816406 126.910156 342.914062 126.683594 342.886719 C 126.453125 342.859375 126.261719 342.707031 126.175781 342.492188 L 124.988281 339.484375 Z M 120.210938 361.132812 C 119.613281 361.132812 118.988281 361.082031 118.238281 360.996094 C 116.925781 360.851562 115.882812 360.253906 115.21875 359.269531 C 114.472656 358.15625 114.289062 356.640625 114.722656 355.105469 C 115.394531 352.710938 116.550781 350.222656 118.355469 347.269531 C 119.621094 345.203125 120.613281 339.007812 120.625 338.945312 C 120.671875 338.652344 120.917969 338.429688 121.214844 338.414062 L 125.375 338.207031 C 125.640625 338.191406 125.894531 338.355469 125.992188 338.605469 L 126.921875 340.964844 L 128.691406 338.511719 C 128.84375 338.296875 129.113281 338.203125 129.367188 338.273438 C 129.621094 338.34375 129.804688 338.5625 129.824219 338.828125 C 129.847656 339.078125 130.335938 344.945312 130.253906 347.40625 C 130.199219 349.160156 128.351562 353.976562 126.8125 357.714844 C 126.257812 359.070312 125.019531 360.191406 123.664062 360.574219 C 122.246094 360.972656 121.269531 361.132812 120.210938 361.132812 " fill-opacity="1" fill-rule="nonzero"/><path fill="#000000" d="M 127.242188 350.191406 Z M 127.242188 350.191406 C 127.242188 350.195312 127.242188 350.195312 127.242188 350.195312 C 127.242188 350.195312 127.242188 350.195312 127.242188 350.191406 Z M 119.421875 358.644531 C 118.773438 358.644531 118.046875 358.578125 117.433594 358.375 C 117.105469 358.265625 116.925781 357.910156 117.035156 357.578125 C 117.148438 357.25 117.503906 357.074219 117.832031 357.183594 C 118.757812 357.492188 120.214844 357.382812 120.777344 357.285156 C 121.738281 357.109375 122.609375 356.601562 123.230469 355.851562 C 123.765625 355.210938 124.148438 354.625 124.367188 354.117188 C 124.824219 353.0625 125.289062 351.859375 125.625 350.980469 C 126.1875 349.519531 126.238281 349.410156 126.398438 349.261719 C 126.65625 349.03125 127.054688 349.050781 127.285156 349.308594 C 127.488281 349.53125 127.5 349.859375 127.328125 350.097656 C 127.25 350.253906 127.019531 350.851562 126.796875 351.429688 C 126.457031 352.320312 125.988281 353.539062 125.519531 354.617188 C 125.253906 355.234375 124.808594 355.917969 124.195312 356.65625 C 123.386719 357.628906 122.253906 358.292969 121 358.519531 C 120.710938 358.570312 120.109375 358.644531 119.421875 358.644531 " fill-opacity="1" fill-rule="nonzero"/><path fill="#000000" d="M 118.753906 353.039062 C 118.421875 353.039062 118.144531 352.78125 118.128906 352.441406 C 118.109375 352.097656 118.378906 351.800781 118.722656 351.785156 L 123.28125 351.554688 C 123.621094 351.535156 123.921875 351.804688 123.941406 352.152344 C 123.957031 352.496094 123.691406 352.792969 123.34375 352.808594 L 118.785156 353.039062 C 118.777344 353.039062 118.765625 353.039062 118.753906 353.039062 " fill-opacity="1" fill-rule="nonzero"/><path fill="#000000" d="M 172.054688 218.585938 C 172.054688 218.585938 173.617188 260.355469 173.234375 287.617188 C 172.90625 311.0625 171.082031 329.839844 170.574219 334.636719 C 170.5 335.367188 169.957031 335.960938 169.238281 336.09375 C 167.824219 336.355469 165.371094 336.679688 162.976562 336.351562 C 162.3125 336.257812 161.765625 335.789062 161.585938 335.144531 C 160.320312 330.523438 155.117188 311.191406 154.742188 303.730469 C 154.332031 295.636719 155.679688 293.535156 155.511719 286.933594 C 155.386719 281.988281 152.847656 264.511719 151.582031 256.042969 C 151.414062 254.929688 149.855469 254.820312 149.539062 255.898438 C 147.242188 263.753906 142.359375 280.730469 137.863281 298.128906 C 137.632812 299.019531 136.652344 306.574219 136.425781 307.453125 C 133.648438 318.316406 130.953125 327.054688 130.0625 332.140625 C 129.917969 332.964844 129.285156 333.621094 128.46875 333.796875 C 126.894531 334.132812 124.238281 334.5 121.832031 333.871094 C 120.96875 333.648438 120.363281 332.867188 120.324219 331.972656 C 120.09375 326.4375 119.257812 305.851562 119.554688 302.375 C 120.183594 294.914062 125.597656 287.328125 126.238281 279.40625 C 126.878906 271.480469 126.484375 251.699219 128.746094 239.707031 C 131.007812 227.714844 135.945312 214.121094 135.945312 214.121094 L 172.054688 218.585938 " fill-opacity="1" fill-rule="nonzero"/><path fill="#000000" d="M 150.074219 138.90625 C 152.941406 137.011719 157.730469 138.03125 159.570312 142.792969 C 161.078125 146.679688 157.707031 149.679688 156.855469 152.546875 C 154.097656 161.820312 163.023438 181.613281 156.957031 191.71875 C 152.121094 199.785156 138.664062 205.726562 127.058594 200.699219 C 116.023438 195.921875 108.519531 184.414062 112.996094 174.992188 C 117.019531 166.523438 124.625 170.53125 129.242188 162.183594 C 133.792969 153.957031 129.613281 150.082031 132.945312 145.960938 C 137.496094 140.328125 141.941406 144.277344 150.074219 138.90625 " fill-opacity="1" fill-rule="nonzero"/><path fill="#ffffff" d="M 134.632812 236.226562 C 134.394531 236.226562 134.171875 236.09375 134.0625 235.863281 C 133.914062 235.550781 134.050781 235.175781 134.363281 235.027344 C 141.367188 231.734375 143.152344 224.597656 143.167969 224.527344 C 143.25 224.191406 143.585938 223.984375 143.925781 224.0625 C 144.261719 224.144531 144.472656 224.480469 144.390625 224.820312 C 144.316406 225.136719 142.464844 232.605469 134.898438 236.164062 C 134.8125 236.207031 134.722656 236.226562 134.632812 236.226562 " fill-opacity="1" fill-rule="nonzero"/><path fill="#22c55e" d="M 175.9375 170.988281 C 176.058594 170.683594 176.460938 170.621094 176.664062 170.878906 C 179.738281 174.785156 185.75 186.78125 195.898438 185.921875 C 206.585938 185.019531 211.003906 178.457031 211.003906 178.457031 L 218.910156 182.636719 C 218.910156 182.636719 215.464844 194.214844 202.367188 201.339844 C 188.996094 208.613281 166.28125 195.554688 166.28125 195.554688 L 175.9375 170.988281 " fill-opacity="1" fill-rule="nonzero"/><path fill="#22c55e" d="M 176.652344 170.898438 C 167.976562 165.671875 152.4375 166.113281 144.710938 169.644531 C 131.007812 175.910156 123.152344 225.726562 127.53125 236.464844 C 131.535156 246.273438 165.601562 248.355469 175.058594 239.964844 C 179.089844 236.390625 177.75 215.066406 177.039062 206.546875 C 176.824219 203.953125 176.714844 201.359375 176.710938 198.757812 L 176.652344 170.898438 " fill-opacity="1" fill-rule="nonzero"/><path fill="#5bf092" d="M 222.578125 165.921875 L 210.632812 155.277344 L 110.941406 267.59375 C 109.878906 268.789062 110.105469 270.898438 111.542969 272.742188 C 113.261719 274.953125 115.320312 276.785156 117.710938 278.238281 C 119.707031 279.453125 121.828125 279.433594 122.886719 278.238281 L 222.578125 165.921875 " fill-opacity="1" fill-rule="nonzero"/><path fill="#000000" d="M 133.851562 249.328125 C 133.703125 249.328125 133.554688 249.277344 133.4375 249.171875 C 133.175781 248.9375 133.152344 248.542969 133.382812 248.285156 L 175.519531 200.8125 C 175.75 200.554688 176.148438 200.527344 176.40625 200.761719 C 176.667969 200.988281 176.691406 201.386719 176.460938 201.648438 L 134.324219 249.117188 C 134.199219 249.257812 134.027344 249.328125 133.851562 249.328125 " fill-opacity="1" fill-rule="nonzero"/><path fill="#000000" d="M 185.625 191.003906 C 185.476562 191.003906 185.328125 190.953125 185.207031 190.84375 C 184.949219 190.613281 184.925781 190.214844 185.15625 189.957031 L 203.441406 169.355469 C 203.671875 169.09375 204.070312 169.070312 204.332031 169.300781 C 204.589844 169.53125 204.613281 169.925781 204.382812 170.1875 L 186.09375 190.792969 C 185.96875 190.933594 185.796875 191.003906 185.625 191.003906 " fill-opacity="1" fill-rule="nonzero"/><path fill="#000000" d="M 125.914062 267.058594 C 125.761719 267.058594 125.613281 267.003906 125.496094 266.898438 C 125.234375 266.667969 125.210938 266.273438 125.441406 266.011719 L 195.503906 187.082031 C 195.730469 186.820312 196.128906 186.796875 196.390625 187.027344 C 196.648438 187.257812 196.671875 187.65625 196.441406 187.914062 L 126.382812 266.84375 C 126.257812 266.984375 126.085938 267.058594 125.914062 267.058594 " fill-opacity="1" fill-rule="nonzero"/><path fill="#ffffff" d="M 239.851562 140.832031 L 239.839844 140.847656 C 238.582031 140.195312 237.011719 138.929688 235.917969 137.953125 C 234.820312 136.976562 234.265625 136.34375 233.472656 135.171875 L 210.644531 155.265625 C 213.480469 160.105469 217.460938 163.652344 222.589844 165.910156 L 239.851562 140.832031 " fill-opacity="1" fill-rule="nonzero"/><path fill="#000000" d="M 239.851562 140.832031 Z M 233.472656 135.171875 L 210.644531 155.265625 C 213.480469 160.105469 217.460938 163.652344 222.589844 165.910156 L 239.851562 140.832031 L 239.839844 140.847656 C 238.582031 140.195312 237.011719 138.929688 235.917969 137.953125 C 234.820312 136.976562 234.265625 136.34375 233.472656 135.171875 Z M 233.269531 137.027344 C 233.78125 137.667969 234.3125 138.207031 235.082031 138.890625 C 235.628906 139.378906 236.816406 140.402344 238.046875 141.230469 L 222.15625 164.324219 C 218.050781 162.320312 214.730469 159.363281 212.269531 155.507812 L 233.269531 137.027344 " fill-opacity="1" fill-rule="nonzero"/><path fill="#000000" d="M 236.300781 138.410156 C 237.394531 139.386719 238.582031 140.195312 239.839844 140.847656 L 250.390625 125.519531 C 251.316406 124.167969 248.664062 121.804688 247.433594 122.886719 L 233.472656 135.171875 C 234.265625 136.34375 235.203125 137.4375 236.300781 138.410156 " fill-opacity="1" fill-rule="nonzero"/><path fill="#ffffff" d="M 158.054688 221.277344 C 158.054688 221.277344 163.53125 221.59375 166.441406 223.914062 C 166.441406 223.914062 166.066406 226.183594 167.105469 227.703125 C 168.144531 229.222656 171.453125 231.117188 171.285156 233.382812 C 171.117188 235.644531 163.332031 234.613281 161.261719 232.558594 C 159.195312 230.5 158 227.050781 155.585938 226.171875 C 153.171875 225.296875 158.054688 221.277344 158.054688 221.277344 " fill-opacity="1" fill-rule="nonzero"/><path fill="#000000" d="M 158.261719 221.921875 C 156.832031 223.140625 155.441406 224.769531 155.546875 225.390625 C 155.550781 225.417969 155.566406 225.5 155.800781 225.582031 C 157.488281 226.195312 158.605469 227.863281 159.6875 229.476562 C 160.316406 230.410156 160.964844 231.375 161.707031 232.113281 C 163.152344 233.550781 168.109375 234.535156 170.125 233.785156 C 170.359375 233.699219 170.640625 233.546875 170.660156 233.332031 C 170.75 232.109375 169.402344 230.863281 168.210938 229.761719 C 167.570312 229.167969 166.964844 228.609375 166.585938 228.058594 C 165.679688 226.734375 165.707031 224.96875 165.777344 224.199219 C 163.347656 222.46875 159.292969 222.015625 158.261719 221.921875 Z M 168.320312 235.285156 C 165.644531 235.285156 162.148438 234.324219 160.820312 233.003906 C 159.988281 232.179688 159.304688 231.160156 158.644531 230.175781 C 157.632812 228.664062 156.675781 227.238281 155.371094 226.761719 C 154.609375 226.488281 154.375 225.980469 154.308594 225.601562 C 154.023438 223.929688 156.800781 221.5 157.65625 220.792969 C 157.777344 220.691406 157.933594 220.640625 158.09375 220.652344 C 158.324219 220.664062 163.800781 221.003906 166.832031 223.421875 C 167.011719 223.566406 167.097656 223.789062 167.0625 224.015625 C 167.058594 224.035156 166.742188 226.0625 167.625 227.347656 C 167.921875 227.78125 168.476562 228.296875 169.0625 228.839844 C 170.460938 230.132812 172.046875 231.597656 171.910156 233.425781 C 171.882812 233.824219 171.667969 234.550781 170.5625 234.960938 C 169.96875 235.183594 169.1875 235.285156 168.320312 235.285156 " fill-opacity="1" fill-rule="nonzero"/><path fill="#22c55e" d="M 144.945312 167.25 L 136.609375 196.460938 C 136.640625 199.59375 138.023438 202.5625 140.402344 204.601562 L 158.816406 220.398438 L 155.660156 227.613281 C 155.488281 228.007812 155.011719 228.164062 154.640625 227.953125 C 150.382812 225.53125 128.019531 212.644531 125.003906 207.578125 C 123.148438 204.460938 122.957031 195.746094 122.882812 190.128906 C 122.824219 185.972656 126.371094 177.246094 129.761719 174.839844 C 135.523438 169.972656 135.523438 167.457031 144.945312 167.25 " fill-opacity="1" fill-rule="nonzero"/><path fill="#000000" d="M 158.816406 221.027344 C 158.671875 221.027344 158.527344 220.976562 158.410156 220.875 L 139.992188 205.078125 C 137.476562 202.921875 136.015625 199.78125 135.980469 196.46875 L 135.828125 181.3125 C 135.824219 180.964844 136.105469 180.683594 136.449219 180.679688 C 136.796875 180.671875 137.082031 180.953125 137.085938 181.300781 L 137.238281 196.453125 C 137.269531 199.40625 138.570312 202.203125 140.8125 204.125 L 159.226562 219.921875 C 159.488281 220.148438 159.519531 220.542969 159.296875 220.808594 C 159.171875 220.953125 158.996094 221.027344 158.816406 221.027344 " fill-opacity="1" fill-rule="nonzero"/><path fill="#000000" d="M 148.964844 224.753906 C 148.859375 224.753906 148.75 224.726562 148.652344 224.671875 C 138.871094 219.121094 126.730469 211.707031 124.464844 207.898438 C 123.453125 206.199219 122.738281 203.136719 122.335938 198.792969 C 122.304688 198.449219 122.558594 198.144531 122.902344 198.113281 C 123.246094 198.078125 123.554688 198.332031 123.585938 198.679688 C 123.972656 202.835938 124.628906 205.71875 125.542969 207.253906 C 127.179688 210.003906 135.828125 215.953125 149.273438 223.578125 C 149.574219 223.75 149.679688 224.132812 149.511719 224.433594 C 149.394531 224.636719 149.183594 224.753906 148.964844 224.753906 " fill-opacity="1" fill-rule="nonzero"/><path fill="#ffffff" d="M 149.578125 152.769531 C 149.863281 152.867188 150.160156 152.691406 150.210938 152.390625 C 150.453125 150.984375 150.746094 148.296875 152.378906 147.519531 C 154.472656 146.523438 157.902344 145.074219 158.59375 146.753906 C 159.199219 148.226562 159.464844 150.9375 161.492188 152.496094 C 161.6875 152.644531 161.621094 152.96875 161.460938 153.152344 L 160.636719 154.234375 C 160.457031 154.445312 160.394531 155.03125 160.429688 155.304688 C 160.53125 156.15625 160.8125 157.945312 160.578125 158.234375 C 160.117188 158.804688 157.285156 159.25 157.285156 159.25 L 156.742188 167.449219 C 156.722656 167.761719 156.777344 168.300781 157.085938 168.3125 L 160.078125 169.40625 C 160.078125 169.40625 158.695312 173.542969 151.871094 172.851562 C 142.957031 171.949219 143.460938 165.9375 143.460938 165.9375 C 143.460938 165.9375 151.792969 168.167969 150.753906 158.09375 C 150.730469 157.871094 150.589844 157.679688 150.390625 157.585938 C 149.617188 157.234375 147.511719 156.160156 147.496094 154.605469 C 147.480469 152.949219 148.605469 152.449219 149.578125 152.769531 " fill-opacity="1" fill-rule="nonzero"/><path fill="#000000" d="M 149.777344 152.175781 Z M 157.105469 167.683594 C 157.105469 167.683594 157.109375 167.683594 157.109375 167.683594 C 157.109375 167.683594 157.105469 167.683594 157.105469 167.683594 Z M 144.121094 166.699219 C 144.320312 168.195312 145.492188 171.574219 151.933594 172.226562 C 156.691406 172.707031 158.5625 170.753906 159.199219 169.753906 L 156.9375 168.925781 C 156.75 168.890625 156.578125 168.792969 156.441406 168.644531 C 156.097656 168.265625 156.097656 167.652344 156.113281 167.40625 L 156.660156 159.207031 C 156.679688 158.914062 156.898438 158.671875 157.1875 158.628906 C 158.414062 158.433594 159.679688 158.097656 160.035156 157.875 C 160.078125 157.476562 159.929688 156.34375 159.863281 155.835938 C 159.839844 155.667969 159.820312 155.511719 159.804688 155.378906 C 159.765625 155.054688 159.800781 154.246094 160.15625 153.828125 L 160.914062 152.835938 C 159.378906 151.542969 158.824219 149.636719 158.414062 148.234375 C 158.277344 147.765625 158.152344 147.328125 158.011719 146.992188 C 157.953125 146.84375 157.855469 146.753906 157.699219 146.695312 C 157.164062 146.488281 155.851562 146.5625 152.648438 148.085938 C 151.453125 148.65625 151.105469 150.8125 150.894531 152.097656 L 150.828125 152.5 C 150.773438 152.820312 150.582031 153.101562 150.304688 153.265625 C 150.027344 153.433594 149.691406 153.472656 149.378906 153.367188 C 149.0625 153.261719 148.757812 153.296875 148.535156 153.457031 C 148.261719 153.65625 148.117188 154.050781 148.125 154.597656 C 148.132812 155.394531 149.074219 156.296875 150.648438 157.015625 C 151.054688 157.199219 151.332031 157.589844 151.378906 158.027344 C 151.738281 161.5 151.058594 163.988281 149.363281 165.4375 C 147.628906 166.914062 145.332031 166.859375 144.121094 166.699219 Z M 153.371094 173.558594 C 152.882812 173.558594 152.363281 173.535156 151.808594 173.476562 C 142.386719 172.523438 142.828125 165.953125 142.832031 165.886719 C 142.847656 165.703125 142.945312 165.53125 143.097656 165.425781 C 143.25 165.316406 143.441406 165.285156 143.621094 165.332031 C 143.652344 165.339844 146.648438 166.105469 148.554688 164.476562 C 149.910156 163.3125 150.441406 161.1875 150.128906 158.15625 C 148.917969 157.609375 146.886719 156.414062 146.867188 154.609375 C 146.859375 153.652344 147.1875 152.882812 147.792969 152.441406 C 148.304688 152.066406 148.960938 151.957031 149.617188 152.128906 L 149.65625 151.898438 C 149.902344 150.367188 150.316406 147.804688 152.109375 146.953125 C 155.125 145.515625 156.988281 145.074219 158.148438 145.519531 C 158.628906 145.707031 158.984375 146.046875 159.175781 146.511719 C 159.339844 146.914062 159.476562 147.382812 159.621094 147.878906 C 160.019531 149.25 160.519531 150.957031 161.875 151.996094 C 162.082031 152.15625 162.207031 152.382812 162.234375 152.648438 C 162.269531 152.964844 162.15625 153.304688 161.941406 153.5625 L 161.132812 154.613281 C 161.078125 154.714844 161.03125 155.066406 161.050781 155.230469 C 161.066406 155.359375 161.085938 155.511719 161.109375 155.675781 C 161.355469 157.550781 161.382812 158.242188 161.066406 158.632812 C 160.601562 159.203125 159.035156 159.578125 157.878906 159.785156 L 157.367188 167.492188 C 157.363281 167.585938 157.367188 167.679688 157.378906 167.75 L 160.292969 168.816406 C 160.613281 168.933594 160.78125 169.285156 160.671875 169.605469 C 160.613281 169.777344 159.277344 173.558594 153.371094 173.558594 " fill-opacity="1" fill-rule="nonzero"/><path fill="#ffffff" d="M 227.042969 164.46875 L 225.933594 170.492188 C 225.621094 172.378906 224.425781 174 222.71875 174.855469 L 219.539062 176.5 C 219.011719 176.773438 218.65625 177.253906 218.367188 177.769531 C 217.726562 178.933594 216.960938 180.820312 216.960938 180.820312 L 212.609375 178.617188 C 212.609375 178.617188 214.28125 176.59375 214.910156 175.925781 C 215.714844 175.070312 216.296875 173.984375 216.359375 172.8125 C 216.550781 169.085938 218.539062 166.289062 218.539062 166.289062 L 221.082031 168.632812 C 221.082031 168.632812 222.816406 167.5625 224.074219 164.753906 C 224.378906 164.066406 224.71875 163.59375 225.054688 163.28125 C 225.921875 162.46875 227.316406 163.3125 227.042969 164.46875 " fill-opacity="1" fill-rule="nonzero"/><path fill="#000000" d="M 213.59375 178.414062 L 216.644531 179.953125 C 216.925781 179.289062 217.394531 178.238281 217.820312 177.46875 C 218.078125 177 218.507812 176.328125 219.25 175.941406 L 222.429688 174.296875 C 223.960938 173.53125 225.035156 172.070312 225.3125 170.390625 L 226.421875 164.355469 C 226.425781 164.34375 226.429688 164.332031 226.433594 164.320312 C 226.507812 164.007812 226.332031 163.777344 226.148438 163.667969 C 226.0625 163.621094 225.761719 163.480469 225.484375 163.738281 C 225.175781 164.027344 224.898438 164.453125 224.644531 165.007812 C 223.324219 167.960938 221.488281 169.121094 221.410156 169.167969 C 221.171875 169.316406 220.863281 169.289062 220.65625 169.09375 L 218.675781 167.265625 C 218.113281 168.253906 217.113281 170.339844 216.984375 172.84375 C 216.921875 174.070312 216.347656 175.316406 215.367188 176.355469 C 214.972656 176.773438 214.136719 177.765625 213.59375 178.414062 Z M 216.960938 181.449219 C 216.863281 181.449219 216.765625 181.425781 216.675781 181.378906 L 212.324219 179.179688 C 212.15625 179.09375 212.03125 178.933594 211.992188 178.746094 C 211.953125 178.558594 212.003906 178.363281 212.125 178.21875 C 212.191406 178.132812 213.816406 176.167969 214.453125 175.492188 C 215.230469 174.671875 215.683594 173.707031 215.730469 172.777344 C 215.929688 168.914062 217.941406 166.046875 218.027344 165.925781 C 218.132812 165.777344 218.296875 165.683594 218.476562 165.664062 C 218.65625 165.644531 218.835938 165.707031 218.964844 165.828125 L 221.121094 167.816406 C 221.660156 167.355469 222.6875 166.308594 223.5 164.496094 C 223.816406 163.785156 224.195312 163.222656 224.625 162.820312 C 225.222656 162.261719 226.066406 162.171875 226.777344 162.582031 C 227.488281 162.996094 227.839844 163.804688 227.65625 164.597656 L 226.550781 170.609375 C 226.207031 172.671875 224.878906 174.476562 223 175.417969 L 219.828125 177.0625 C 219.492188 177.234375 219.207031 177.554688 218.917969 178.074219 C 218.304688 179.191406 217.550781 181.039062 217.542969 181.058594 C 217.476562 181.21875 217.34375 181.347656 217.179688 181.40625 C 217.109375 181.433594 217.035156 181.449219 216.960938 181.449219 " fill-opacity="1" fill-rule="nonzero"/><path fill="#000000" d="M 105.875 155.605469 C 105.535156 155.605469 105.253906 155.335938 105.246094 154.992188 L 105.199219 152.765625 C 105.191406 152.421875 105.46875 152.132812 105.816406 152.125 C 106.152344 152.101562 106.449219 152.390625 106.457031 152.738281 L 106.503906 154.964844 C 106.511719 155.3125 106.234375 155.601562 105.886719 155.605469 C 105.886719 155.605469 105.878906 155.605469 105.875 155.605469 " fill-opacity="1" fill-rule="nonzero"/><path fill="#000000" d="M 106.042969 163.402344 C 105.703125 163.402344 105.421875 163.128906 105.414062 162.789062 L 105.367188 160.5625 C 105.359375 160.214844 105.636719 159.925781 105.980469 159.921875 C 106.324219 159.902344 106.617188 160.1875 106.625 160.535156 L 106.671875 162.761719 C 106.679688 163.109375 106.402344 163.394531 106.054688 163.402344 C 106.050781 163.402344 106.046875 163.402344 106.042969 163.402344 " fill-opacity="1" fill-rule="nonzero"/><path fill="#000000" d="M 100.996094 158.429688 C 100.652344 158.429688 100.371094 158.152344 100.367188 157.808594 C 100.367188 157.460938 100.644531 157.179688 100.992188 157.175781 L 103.1875 157.15625 C 103.1875 157.15625 103.191406 157.15625 103.191406 157.15625 C 103.535156 157.15625 103.816406 157.433594 103.820312 157.78125 C 103.824219 158.128906 103.542969 158.410156 103.195312 158.414062 L 101 158.429688 C 101 158.429688 101 158.429688 100.996094 158.429688 " fill-opacity="1" fill-rule="nonzero"/><path fill="#000000" d="M 108.679688 158.371094 C 108.335938 158.371094 108.054688 158.09375 108.050781 157.746094 C 108.046875 157.402344 108.328125 157.117188 108.675781 157.113281 L 110.871094 157.097656 C 110.871094 157.097656 110.871094 157.097656 110.875 157.097656 C 111.21875 157.097656 111.5 157.375 111.503906 157.722656 C 111.503906 158.066406 111.226562 158.351562 110.878906 158.351562 L 108.683594 158.371094 C 108.683594 158.371094 108.679688 158.371094 108.679688 158.371094 " fill-opacity="1" fill-rule="nonzero"/><path fill="#000000" d="M 432.671875 186.304688 C 432.328125 186.304688 432.050781 186.035156 432.042969 185.691406 L 431.996094 183.464844 C 431.988281 183.117188 432.261719 182.828125 432.609375 182.824219 C 432.613281 182.820312 432.617188 182.820312 432.621094 182.820312 C 432.964844 182.820312 433.246094 183.09375 433.253906 183.4375 L 433.300781 185.664062 C 433.308594 186.011719 433.03125 186.300781 432.683594 186.304688 C 432.679688 186.304688 432.675781 186.304688 432.671875 186.304688 " fill-opacity="1" fill-rule="nonzero"/><path fill="#000000" d="M 432.839844 194.101562 C 432.5 194.101562 432.214844 193.828125 432.210938 193.488281 L 432.164062 191.257812 C 432.15625 190.910156 432.429688 190.625 432.777344 190.617188 C 432.78125 190.617188 432.789062 190.617188 432.792969 190.617188 C 433.132812 190.617188 433.414062 190.890625 433.417969 191.234375 L 433.46875 193.460938 C 433.472656 193.808594 433.199219 194.09375 432.855469 194.101562 C 432.847656 194.101562 432.84375 194.101562 432.839844 194.101562 " fill-opacity="1" fill-rule="nonzero"/><path fill="#000000" d="M 427.796875 189.128906 C 427.449219 189.128906 427.167969 188.851562 427.164062 188.503906 C 427.164062 188.15625 427.441406 187.875 427.789062 187.871094 L 429.984375 187.855469 C 429.988281 187.855469 429.988281 187.855469 429.988281 187.855469 C 430.332031 187.855469 430.613281 188.132812 430.617188 188.480469 C 430.621094 188.824219 430.339844 189.109375 429.992188 189.109375 L 427.796875 189.128906 " fill-opacity="1" fill-rule="nonzero"/><path fill="#000000" d="M 435.476562 189.066406 C 435.128906 189.066406 434.851562 188.789062 434.847656 188.445312 C 434.84375 188.097656 435.121094 187.816406 435.46875 187.8125 L 437.667969 187.792969 C 438.015625 187.808594 438.296875 188.070312 438.300781 188.417969 C 438.300781 188.761719 438.019531 189.046875 437.675781 189.050781 L 435.480469 189.066406 C 435.480469 189.066406 435.476562 189.066406 435.476562 189.066406 " fill-opacity="1" fill-rule="nonzero"/><path fill="#000000" d="M 303.371094 21.203125 C 303.214844 21.203125 303.058594 21.148438 302.9375 21.03125 C 302.6875 20.789062 302.679688 20.390625 302.917969 20.140625 L 304.457031 18.53125 C 304.699219 18.28125 305.097656 18.273438 305.347656 18.515625 C 305.597656 18.753906 305.605469 19.152344 305.363281 19.402344 L 303.824219 21.007812 C 303.699219 21.140625 303.539062 21.203125 303.371094 21.203125 " fill-opacity="1" fill-rule="nonzero"/><path fill="#000000" d="M 297.976562 26.835938 C 297.820312 26.835938 297.664062 26.777344 297.542969 26.664062 C 297.292969 26.421875 297.285156 26.023438 297.523438 25.773438 L 299.0625 24.164062 C 299.304688 23.910156 299.699219 23.90625 299.949219 24.144531 C 300.203125 24.386719 300.210938 24.785156 299.96875 25.035156 L 298.429688 26.640625 C 298.304688 26.769531 298.140625 26.835938 297.976562 26.835938 " fill-opacity="1" fill-rule="nonzero"/><path fill="#000000" d="M 299.488281 21.292969 C 299.328125 21.292969 299.167969 21.234375 299.046875 21.113281 L 297.484375 19.570312 C 297.238281 19.332031 297.230469 18.929688 297.476562 18.683594 C 297.71875 18.4375 298.113281 18.433594 298.363281 18.679688 L 299.925781 20.214844 C 300.175781 20.460938 300.179688 20.859375 299.933594 21.105469 C 299.8125 21.230469 299.652344 21.292969 299.488281 21.292969 " fill-opacity="1" fill-rule="nonzero"/><path fill="#000000" d="M 304.964844 26.679688 C 304.804688 26.679688 304.644531 26.621094 304.523438 26.5 L 302.957031 24.960938 C 302.714844 24.71875 302.707031 24.320312 302.949219 24.070312 C 303.195312 23.824219 303.59375 23.820312 303.839844 24.066406 L 305.40625 25.605469 C 305.652344 25.847656 305.65625 26.246094 305.410156 26.492188 C 305.289062 26.617188 305.128906 26.679688 304.964844 26.679688 " fill-opacity="1" fill-rule="nonzero"/><path fill="#000000" d="M 369.011719 32.179688 C 366.464844 32.179688 364.386719 30.109375 364.386719 27.5625 C 364.386719 25.015625 366.464844 22.945312 369.011719 22.945312 C 369.359375 22.945312 369.640625 23.222656 369.640625 23.570312 C 369.640625 23.917969 369.359375 24.199219 369.011719 24.199219 C 367.15625 24.199219 365.644531 25.707031 365.644531 27.5625 C 365.644531 29.414062 367.15625 30.925781 369.011719 30.925781 C 370.871094 30.925781 372.378906 29.414062 372.378906 27.5625 C 372.378906 27.214844 372.660156 26.933594 373.007812 26.933594 C 373.355469 26.933594 373.636719 27.214844 373.636719 27.5625 C 373.636719 30.109375 371.5625 32.179688 369.011719 32.179688 " fill-opacity="1" fill-rule="nonzero"/><path fill="#000000" d="M 128.613281 56.472656 C 128.457031 56.472656 128.296875 56.414062 128.175781 56.296875 C 127.925781 56.058594 127.917969 55.660156 128.15625 55.410156 L 130.132812 53.34375 C 130.375 53.09375 130.773438 53.085938 131.023438 53.324219 C 131.273438 53.5625 131.28125 53.960938 131.042969 54.210938 L 129.066406 56.277344 C 128.941406 56.40625 128.777344 56.472656 128.613281 56.472656 " fill-opacity="1" fill-rule="nonzero"/><path fill="#000000" d="M 123.632812 56.582031 C 123.472656 56.582031 123.3125 56.523438 123.191406 56.402344 L 121.183594 54.421875 C 120.9375 54.179688 120.933594 53.78125 121.175781 53.535156 C 121.421875 53.289062 121.816406 53.285156 122.066406 53.527344 L 124.074219 55.503906 C 124.320312 55.75 124.324219 56.148438 124.078125 56.394531 C 123.957031 56.519531 123.792969 56.582031 123.632812 56.582031 " fill-opacity="1" fill-rule="nonzero"/><path fill="#000000" d="M 130.65625 63.507812 C 130.496094 63.507812 130.335938 63.445312 130.214844 63.328125 L 128.207031 61.347656 C 127.960938 61.105469 127.957031 60.707031 128.199219 60.460938 C 128.445312 60.210938 128.84375 60.210938 129.089844 60.453125 L 131.097656 62.429688 C 131.34375 62.675781 131.347656 63.070312 131.101562 63.320312 C 130.980469 63.445312 130.816406 63.507812 130.65625 63.507812 " fill-opacity="1" fill-rule="nonzero"/><path fill="#000000" d="M 121.691406 63.707031 C 121.535156 63.707031 121.378906 63.648438 121.257812 63.53125 C 121.003906 63.292969 120.996094 62.894531 121.238281 62.644531 L 123.214844 60.578125 C 123.453125 60.328125 123.851562 60.316406 124.101562 60.558594 C 124.355469 60.796875 124.363281 61.195312 124.121094 61.445312 L 122.144531 63.511719 C 122.019531 63.640625 121.855469 63.707031 121.691406 63.707031 " fill-opacity="1" fill-rule="nonzero"/><path fill="#000000" d="M 144.878906 35.210938 C 143.246094 35.941406 142.507812 37.898438 143.226562 39.570312 C 143.578125 40.382812 144.21875 41.007812 145.03125 41.320312 C 145.820312 41.628906 146.6875 41.605469 147.460938 41.257812 C 149.09375 40.523438 149.832031 38.570312 149.113281 36.898438 C 148.761719 36.085938 148.121094 35.460938 147.308594 35.144531 C 146.519531 34.839844 145.652344 34.859375 144.878906 35.210938 Z M 146.171875 42.792969 C 145.632812 42.792969 145.09375 42.695312 144.574219 42.492188 C 143.445312 42.054688 142.558594 41.191406 142.070312 40.066406 C 141.082031 37.769531 142.109375 35.074219 144.363281 34.066406 C 145.449219 33.574219 146.65625 33.542969 147.765625 33.976562 C 148.894531 34.414062 149.78125 35.273438 150.269531 36.402344 C 151.257812 38.699219 150.230469 41.390625 147.976562 42.402344 C 147.398438 42.664062 146.785156 42.792969 146.171875 42.792969 " fill-opacity="1" fill-rule="nonzero"/><path fill="#000000" d="M 325.917969 312.410156 C 325.757812 312.410156 325.597656 312.347656 325.472656 312.226562 L 323.648438 310.398438 C 323.40625 310.152344 323.40625 309.753906 323.652344 309.507812 C 323.894531 309.261719 324.292969 309.261719 324.539062 309.511719 L 326.363281 311.335938 C 326.609375 311.582031 326.609375 311.980469 326.363281 312.226562 C 326.242188 312.347656 326.078125 312.410156 325.917969 312.410156 " fill-opacity="1" fill-rule="nonzero"/><path fill="#000000" d="M 332.304688 318.804688 C 332.144531 318.804688 331.984375 318.742188 331.859375 318.617188 L 330.035156 316.792969 C 329.789062 316.546875 329.789062 316.148438 330.039062 315.90625 C 330.28125 315.660156 330.679688 315.660156 330.925781 315.90625 L 332.75 317.730469 C 332.996094 317.976562 332.996094 318.375 332.75 318.617188 C 332.628906 318.742188 332.464844 318.804688 332.304688 318.804688 " fill-opacity="1" fill-rule="nonzero"/><path fill="#000000" d="M 324.09375 318.804688 C 323.933594 318.804688 323.773438 318.742188 323.652344 318.617188 C 323.40625 318.375 323.40625 317.976562 323.648438 317.730469 L 325.472656 315.90625 C 325.71875 315.660156 326.117188 315.660156 326.363281 315.90625 C 326.609375 316.148438 326.609375 316.546875 326.363281 316.792969 L 324.539062 318.617188 C 324.417969 318.742188 324.253906 318.804688 324.09375 318.804688 " fill-opacity="1" fill-rule="nonzero"/><path fill="#000000" d="M 330.480469 312.410156 C 330.320312 312.410156 330.160156 312.347656 330.039062 312.226562 C 329.789062 311.980469 329.789062 311.582031 330.035156 311.335938 L 331.859375 309.511719 C 332.105469 309.261719 332.503906 309.261719 332.75 309.507812 C 332.996094 309.753906 332.996094 310.152344 332.75 310.398438 L 330.925781 312.226562 C 330.800781 312.347656 330.640625 312.410156 330.480469 312.410156 " fill-opacity="1" fill-rule="nonzero"/></svg>