<svg xmlns="http://www.w3.org/2000/svg" xmlns:xlink="http://www.w3.org/1999/xlink" width="500" zoomAndPan="magnify" viewBox="0 0 375 374.999991" height="500" preserveAspectRatio="xMidYMid meet" version="1.0"><defs><filter x="0%" y="0%" width="100%" height="100%" id="7e6e051c97"><feColorMatrix values="0 0 0 0 1 0 0 0 0 1 0 0 0 0 1 0 0 0 1 0" color-interpolation-filters="sRGB"/></filter><mask id="a7c26fbd18"><g filter="url(#7e6e051c97)"><rect x="-37.5" width="450" fill="#000000" y="-37.499999" height="449.999989" fill-opacity="0.4"/></g></mask><clipPath id="1d2c619e18"><rect x="0" width="329" y="0" height="329"/></clipPath></defs><g mask="url(#a7c26fbd18)"><g transform="matrix(1, 0, 0, 1, 23, 23)"><g clip-path="url(#1d2c619e18)"><path fill="#393939" d="M 164.484375 320.722656 C 152.46875 320.722656 140.46875 316.160156 131.296875 307.050781 L 119.890625 295.644531 C 115.46875 291.238281 109.546875 288.800781 103.265625 288.785156 L 87.21875 288.785156 C 61.28125 288.785156 40.171875 267.675781 40.171875 241.738281 L 40.171875 225.675781 C 40.15625 219.410156 37.71875 213.488281 33.296875 209.035156 L 22.078125 197.832031 C 3.703125 179.566406 3.625 149.707031 21.90625 131.316406 L 33.3125 119.894531 C 37.71875 115.472656 40.15625 109.550781 40.171875 103.269531 L 40.171875 87.238281 C 40.171875 61.285156 61.28125 40.175781 87.21875 40.175781 L 103.28125 40.175781 C 109.546875 40.175781 115.453125 37.738281 119.90625 33.285156 L 131.140625 22.082031 C 149.40625 3.707031 179.25 3.613281 197.65625 21.910156 L 209.0625 33.316406 C 213.5 37.738281 219.40625 40.175781 225.671875 40.175781 L 241.734375 40.175781 C 267.671875 40.175781 288.78125 61.285156 288.78125 87.238281 L 288.78125 103.285156 C 288.796875 109.550781 291.234375 115.472656 295.65625 119.925781 L 306.875 131.144531 C 315.765625 139.988281 320.6875 151.769531 320.734375 164.347656 C 320.765625 176.847656 315.953125 188.613281 307.1875 197.503906 C 307.03125 197.660156 306.890625 197.832031 306.734375 197.972656 L 295.640625 209.066406 C 291.234375 213.488281 288.796875 219.410156 288.78125 225.691406 L 288.78125 241.738281 C 288.78125 267.675781 267.671875 288.785156 241.734375 288.785156 L 225.671875 288.785156 C 219.40625 288.800781 213.484375 291.238281 209.046875 295.660156 L 197.8125 306.878906 C 188.660156 316.097656 176.5625 320.722656 164.484375 320.722656 " fill-opacity="1" fill-rule="nonzero"/></g></g></g><path fill="#22c55e" d="M 156.917969 157.046875 C 154.339844 159.625 150.996094 161.015625 147.292969 161.015625 C 143.824219 161.015625 140.417969 159.59375 137.683594 157.03125 C 135.089844 154.453125 133.621094 150.921875 133.621094 147.34375 C 133.621094 143.9375 135.058594 140.4375 137.589844 137.734375 C 138.980469 136.328125 140.636719 135.265625 142.292969 134.703125 C 147.011719 132.546875 153.277344 133.8125 156.996094 137.71875 C 158.324219 139.046875 159.339844 140.5 160.011719 142.015625 C 160.746094 143.640625 161.121094 145.484375 161.121094 147.34375 C 161.121094 151.0625 159.636719 154.515625 156.917969 157.046875 Z M 237.351562 137.652344 C 232.023438 132.339844 223.351562 132.339844 218.023438 137.652344 L 137.710938 217.964844 C 132.382812 223.292969 132.382812 231.964844 137.710938 237.308594 C 140.304688 239.886719 143.726562 241.308594 147.382812 241.308594 C 151.039062 241.308594 154.460938 239.886719 157.039062 237.308594 L 237.351562 156.996094 C 242.679688 151.652344 242.679688 142.996094 237.351562 137.652344 Z M 232.902344 215.0625 C 227.839844 212.9375 221.839844 214.09375 217.839844 218.09375 C 217.011719 219.0625 215.839844 220.5625 215.042969 222.328125 C 214.199219 224.234375 214.089844 226.28125 214.089844 227.65625 C 214.089844 229.03125 214.199219 231.0625 215.042969 232.96875 C 215.824219 234.71875 216.761719 236.140625 217.996094 237.375 C 220.824219 240 224.105469 241.328125 227.761719 241.328125 C 231.230469 241.328125 234.636719 239.921875 237.433594 237.3125 C 239.917969 234.828125 241.277344 231.390625 241.277344 227.65625 C 241.277344 223.90625 239.917969 220.484375 237.417969 217.984375 C 236.042969 216.625 234.386719 215.5625 232.902344 215.0625 Z M 232.902344 215.0625 " fill-opacity="1" fill-rule="evenodd"/></svg>