<svg xmlns="http://www.w3.org/2000/svg" xmlns:xlink="http://www.w3.org/1999/xlink" width="700" zoomAndPan="magnify" viewBox="0 0 525 374.999991" height="500" preserveAspectRatio="xMidYMid meet" version="1.0"><defs><g/><clipPath id="1906a2fc51"><path d="M 0 68.433594 L 113.847656 68.433594 L 113.847656 314.734375 L 0 314.734375 Z M 0 68.433594 " clip-rule="nonzero"/></clipPath></defs><g fill="#ffffff" fill-opacity="1"><g transform="translate(151.989238, 298.118646)"><g><path d="M 30.765625 0 L 30.765625 -190.671875 L 2.75 -190.671875 L 2.75 -236.015625 L 106.046875 -236.015625 L 106.046875 -190.671875 L 78.03125 -190.671875 L 78.03125 0 Z M 30.765625 0 "/></g></g></g><g fill="#ffffff" fill-opacity="1"><g transform="translate(260.790881, 298.118646)"><g><path d="M 10.4375 -236.015625 L 82.96875 -236.015625 C 94.507812 -236.015625 103.4375 -233.398438 109.75 -228.171875 C 116.070312 -222.953125 120.332031 -215.625 122.53125 -206.1875 C 124.726562 -196.757812 125.828125 -184.71875 125.828125 -170.0625 C 125.828125 -156.695312 124.085938 -146.257812 120.609375 -138.75 C 117.128906 -131.238281 111.085938 -126.019531 102.484375 -123.09375 C 109.628906 -121.625 114.800781 -118.050781 118 -112.375 C 121.207031 -106.695312 122.8125 -99.003906 122.8125 -89.296875 L 122.265625 0 L 76.109375 0 L 76.109375 -92.3125 C 76.109375 -98.90625 74.820312 -103.117188 72.25 -104.953125 C 69.6875 -106.785156 65.019531 -107.703125 58.25 -107.703125 L 58.25 0 L 10.4375 0 Z M 69.78125 -148.640625 C 76.375 -148.640625 79.671875 -155.78125 79.671875 -170.0625 C 79.671875 -176.289062 79.394531 -180.960938 78.84375 -184.078125 C 78.300781 -187.191406 77.296875 -189.34375 75.828125 -190.53125 C 74.367188 -191.726562 72.265625 -192.328125 69.515625 -192.328125 L 58.515625 -192.328125 L 58.515625 -148.640625 Z M 69.78125 -148.640625 "/></g></g></g><g fill="#ffffff" fill-opacity="1"><g transform="translate(391.847431, 298.118646)"><g><path d="M 10.4375 0 L 10.4375 -236.015625 L 57.140625 -236.015625 L 57.140625 -141.5 L 79.125 -236.015625 L 126.65625 -236.015625 L 100.28125 -128.03125 L 132.15625 0 L 83.25 0 L 57.421875 -114.296875 L 57.421875 0 Z M 10.4375 0 "/></g></g></g><g clip-path="url(#1906a2fc51)"><path fill="#ffffff" d="M 0 68.433594 L 113.847656 68.433594 L 113.847656 314.808594 L 0 314.808594 Z M 0 68.433594 " fill-opacity="1" fill-rule="nonzero"/></g><g fill="#22c55e" fill-opacity="1"><g transform="translate(92.601882, 286.950448)"><g><path d="M 0.703125 -21.5 C 0.703125 -14.570312 -1.007812 -9.566406 -4.4375 -6.484375 C -7.875 -3.398438 -13.414062 -1.859375 -21.0625 -1.859375 L -28.53125 -1.859375 L -28.53125 -16.890625 L -19.015625 -16.890625 C -15.222656 -16.890625 -13.328125 -18.101562 -13.328125 -20.53125 C -13.328125 -21.882812 -13.726562 -22.828125 -14.53125 -23.359375 C -15.332031 -23.898438 -16.679688 -24.171875 -18.578125 -24.171875 C -21.054688 -24.171875 -23.109375 -23.875 -24.734375 -23.28125 C -26.367188 -22.6875 -27.734375 -21.929688 -28.828125 -21.015625 C -29.929688 -20.097656 -31.632812 -18.453125 -33.9375 -16.078125 L -40.515625 -9.515625 C -45.492188 -4.410156 -51.003906 -1.859375 -57.046875 -1.859375 C -63.566406 -1.859375 -68.53125 -3.351562 -71.9375 -6.34375 C -75.34375 -9.34375 -77.046875 -13.710938 -77.046875 -19.453125 C -77.046875 -26.328125 -75.222656 -31.273438 -71.578125 -34.296875 C -67.929688 -37.316406 -62.226562 -38.828125 -54.46875 -38.828125 L -54.46875 -23.28125 L -59.71875 -23.1875 C -60.71875 -23.1875 -61.515625 -22.90625 -62.109375 -22.34375 C -62.703125 -21.78125 -63 -21 -63 -20 C -63 -18.8125 -62.671875 -17.921875 -62.015625 -17.328125 C -61.367188 -16.734375 -60.484375 -16.4375 -59.359375 -16.4375 C -56.867188 -16.4375 -54.289062 -17.859375 -51.625 -20.703125 L -43.09375 -29.59375 C -41.082031 -31.664062 -39.171875 -33.378906 -37.359375 -34.734375 C -35.554688 -36.097656 -33.425781 -37.195312 -30.96875 -38.03125 C -28.507812 -38.863281 -25.59375 -39.28125 -22.21875 -39.28125 C -14.695312 -39.28125 -8.992188 -37.898438 -5.109375 -35.140625 C -1.234375 -32.390625 0.703125 -27.84375 0.703125 -21.5 Z M 0.703125 -21.5 "/></g></g></g><g fill="#22c55e" fill-opacity="1"><g transform="translate(92.601882, 245.990652)"><g><path d="M 0 -9.953125 L -61.671875 -9.953125 L -61.671875 -0.890625 L -76.328125 -0.890625 L -76.328125 -34.296875 L -61.671875 -34.296875 L -61.671875 -25.234375 L 0 -25.234375 Z M 0 -9.953125 "/></g></g></g><g fill="#22c55e" fill-opacity="1"><g transform="translate(92.601882, 210.8061)"><g><path d="M 0 -1.328125 L -76.328125 -8.703125 L -76.328125 -34.5625 L 0 -41.859375 L 0 -27.375 L -12.34375 -26.296875 L -12.34375 -17.0625 L 0 -16.171875 Z M -24.53125 -18.21875 L -24.53125 -25.140625 L -63.359375 -21.765625 L -63.359375 -21.0625 Z M -24.53125 -18.21875 "/></g></g></g><g fill="#22c55e" fill-opacity="1"><g transform="translate(92.601882, 167.713901)"><g><path d="M 0 -3.375 L -76.328125 -3.375 L -76.328125 -33.9375 L -61.484375 -33.9375 L -61.484375 -18.75 L -49.3125 -18.75 L -49.3125 -33.140625 L -34.65625 -33.140625 L -34.65625 -18.75 L 0 -18.75 Z M 0 -3.375 "/></g></g></g><g fill="#22c55e" fill-opacity="1"><g transform="translate(92.601882, 132.262793)"><g><path d="M 0 -3.375 L -76.328125 -3.375 L -76.328125 -33.9375 L -61.484375 -33.9375 L -61.484375 -18.75 L -49.3125 -18.75 L -49.3125 -33.140625 L -34.65625 -33.140625 L -34.65625 -18.75 L 0 -18.75 Z M 0 -3.375 "/></g></g></g></svg>